<mxfile host="app.diagrams.net" modified="2023-09-04T07:08:33.735Z" agent="Mozilla/5.0 (Windows NT 10.0; Win64; x64) AppleWebKit/537.36 (KHTML, like Gecko) Chrome/116.0.0.0 Safari/537.36 Edg/116.0.1938.69" etag="Erm5Gn9U5-GSvZTM7ZSm" version="21.7.2" type="device" pages="4">
  <diagram name="Page-1" id="-IdYNVva06vhIt29iiCe">
    <mxGraphModel dx="2668" dy="1148" grid="1" gridSize="10" guides="1" tooltips="1" connect="1" arrows="1" fold="1" page="1" pageScale="1" pageWidth="850" pageHeight="1100" math="0" shadow="0">
      <root>
        <mxCell id="0" />
        <mxCell id="1" parent="0" />
        <mxCell id="plHdwqoXBkwrzOqFxZTN-35" value="" style="group;dashed=1;strokeColor=none;rounded=0;dashPattern=12 12;" parent="1" vertex="1" connectable="0">
          <mxGeometry x="-140" y="360" width="770" height="460" as="geometry" />
        </mxCell>
        <mxCell id="EjAEQaRO7dp1GLkJqz64-21" value="" style="rounded=0;whiteSpace=wrap;html=1;" parent="plHdwqoXBkwrzOqFxZTN-35" vertex="1">
          <mxGeometry width="770" height="460" as="geometry" />
        </mxCell>
        <mxCell id="EjAEQaRO7dp1GLkJqz64-25" value="BwFPS" style="text;html=1;align=center;verticalAlign=middle;resizable=0;points=[];autosize=1;strokeColor=none;fillColor=none;" parent="plHdwqoXBkwrzOqFxZTN-35" vertex="1">
          <mxGeometry width="60" height="30" as="geometry" />
        </mxCell>
        <mxCell id="plHdwqoXBkwrzOqFxZTN-32" style="edgeStyle=orthogonalEdgeStyle;rounded=0;orthogonalLoop=1;jettySize=auto;html=1;exitX=0.5;exitY=0;exitDx=0;exitDy=0;entryX=0.75;entryY=1;entryDx=0;entryDy=0;" parent="1" source="EjAEQaRO7dp1GLkJqz64-5" target="plHdwqoXBkwrzOqFxZTN-23" edge="1">
          <mxGeometry relative="1" as="geometry" />
        </mxCell>
        <mxCell id="EjAEQaRO7dp1GLkJqz64-5" value="DSWFD Frontend" style="rounded=1;whiteSpace=wrap;html=1;align=right;spacingRight=15;" parent="1" vertex="1">
          <mxGeometry x="189.29" y="720" width="190" height="70" as="geometry" />
        </mxCell>
        <mxCell id="plHdwqoXBkwrzOqFxZTN-6" value="MSSQL" style="shape=cylinder3;whiteSpace=wrap;html=1;boundedLbl=1;backgroundOutline=1;size=15;" parent="1" vertex="1">
          <mxGeometry x="120" y="380" width="60" height="80" as="geometry" />
        </mxCell>
        <mxCell id="plHdwqoXBkwrzOqFxZTN-13" value="" style="group" parent="1" vertex="1" connectable="0">
          <mxGeometry x="390" y="517.5" width="110" height="100" as="geometry" />
        </mxCell>
        <mxCell id="EjAEQaRO7dp1GLkJqz64-6" value="Keycloak" style="rounded=1;whiteSpace=wrap;html=1;verticalAlign=bottom;" parent="plHdwqoXBkwrzOqFxZTN-13" vertex="1">
          <mxGeometry width="110" height="100" as="geometry" />
        </mxCell>
        <mxCell id="plHdwqoXBkwrzOqFxZTN-12" value="" style="shape=image;verticalLabelPosition=bottom;labelBackgroundColor=default;verticalAlign=top;aspect=fixed;imageAspect=0;image=data:image/png,iVBORw0KGgoAAAANSUhEUgAAAQAAAAEACAYAAABccqhmAAAACXBIWXMAAAsTAAALEwEAmpwYAAAAGXRFWHRTb2Z0d2FyZQBBZG9iZSBJbWFnZVJlYWR5ccllPAAAKJdJREFUeNrsXXuQXFWZPzP9mkf3vJNJZpLJZMjTgCQu+EREAavchSHUmnItlMQoLiIs+UfXRS1CsaUsWFTcXZRaQJIAIhVREtxSBBQELNeo5P0YzJuZTDIzmWdm+t17v07fsdPTj/v43XtPd3+/qqlInNzue+85v/M73+8731eRSCQEg8EoT1QwATAYTAAMBoMJgMFgMAEwGAwmAAaDwQTAYDCYABgMBhMAg8FgAmAwGEwADAaDCYDBYDABMBgMJgAGg8EEwGAwmAAYDAYTAIPBYAJgMBhMAAwGgwmAwWAwATAYDCYABoPBBMBgMJgAGAwGE4CN6O7uXqn8sUn5+Rg/jZLECeVnw44dO17gR8EEkDn5G5Q/jis/9fw0Sh6rFBLYxY9BiEp+BNPYwJO/bLCJHwErgPTVv1P54xgPh7LCFxQVsJkVAIOwmR9B2WFjatvHBFDmq/81goN+5YgFqW0fEwCv/owyxYbU9o8JoExX/w2plYBRnqCg78ZyfgBlGwRk24+Rho/v2LHjNVYA5YVNPPkZaWOBFUAZrf6U8fc2j3tGGsrSFixXBcCJIIwZY6IcbcGyIwDlJa8WbPsxZoK2gxuYAHj1Z5Qv7i03W7CsCEB5uRsF234MXiCmUTZBwBSz7xIc+WcURtnYguWkADby5GdoxGbeApTW6n+N8sdaHtcMjViQyhJlAiih1Z/B0DVmysEWLHkCUF7iOsG2H0M/yuKcQEkHAVMMToE/jvwzjGLhjh07jrMCKE7waT+GWWxmBVCcq3+n4DJfDAxuLtVKwqWsADjjj8FjqRwJIGX73cTjlgHCglQWKRMAMzajTLGhFG3BkiOAlO13OY9XBhj1pbiwlFQQkMt8MWxASXUVKjUFsJEnP4O3l2WoANj2Y9iIkikfVkoKYDOPS4ZdSrNUAoIlQQDc3YdhM0qmq1CpKABe/Rl2oyS6ChU9AXB3H4ZDKInTgkUdBCwG22+yyi9OtV4CuVZtaELM6z8i9TuZXPReEZuLWRi9Jw4L38nDsg/Doi4f5i5yApO6u8/hBZeLno73wq7nFQkxuOIjYuWrW6W83/1XrRG+VR8WNf4A5oJXKaS38xVR/8pPZB6DpAKu4S2A/as/dfeRtszXWG0TdPITwl2XilPLPiiG2pfIt/IHmsXRyz8ujogq6HXPX3mdCHUslXkofiyVfcoE4MDqLy32XXIF9Ho+n08If13yf7997a3S3e+u6y58p3A8IQbGJ6DXHrlhvfRjsVhtwaIkANm7+/Q3zxdD9a2w67niMRFauGL6v6cCTcpq+wlp7pcUyVDb4un/7lU2KyIagV0/Vt+sKIHrZR6SRdtVqFgVgOSr/5XQ61U0zRbC67vo73re/w8i4quW4n4zFUksIcSpYBT6GeMf7RbxqhqZX3tRdhUqOgKQvbsPBf6mfLWw63kScRFt75rx9xFvtei58gbn71chIlIkmTgbd4nY+XHY58QVshu77p94YSpnAkgxrLRSK+L2imNty6HXjLcpt+zKbtZQ0I2Cb47drzIpj+XZihypwCqUycs+LCKt82UeojelslKZACzCRiGx7be/6wqFBDyw6/kqFDk9qz3v76jBN0fu96o1SSWSU7ZH42JidAT6maOsAsqTAGTv7kNBP1TCj4rQosI2IgXf+rvsr38y1jIvaUkWwjGXsh2KhGGfG+5YKoJLVsk8VC8vpq5CxaQANsr85Wjvj0TS9qvWFkvYp6zEdmPfR7V9ZtIWDIahn10EKqBoTgsWBQHI3t2HVn6o7ZeIa1r9VVAQjoJxdoEUR7rtVwhkC8aDk7DPJ1uQXAGJUTTnBCqLYPI3yLyvosAfevWvaJyVM/CXU2pf/glbbEH6DL2Kg2zBk1gRkMwLiNW3yDx07y4GW7AYFMAGIXHg72j7crzt16E/1ZeCcftt2ApQAlI2269grEK4RWR8FPY9yBaUXAUQNjMBmFv9iUHvlfX70Uk/dL5/fJ7xQCIF5Sg4Z9n9Bprz2n6F8NdKbCIP2YJFcE7gGiYA45DaUiHbDwmvyyVizXNMXUNrcM4IktmHXuPbjEllL4C2BVkFlCgByN7dh4J+lPOPRHix+ViCVbYg5ftrsf00qQCwLTj53o/IPMek7iokswIoq3x/b21gRr6/mX06GoPtiyHXoYAg2hYcv6oozglsltEalLIi0MMPP/zfK1eu/OrixYul+D7nz5+/4Mun8NPjg+LrfzoOu36V2yWCS9+nO/KfCx+oTohn52MP43x/yKX84NaLj9R7RDBRAbvemtqwWOO/QCwjIyPC7XaL6upqYeX4npycFF6vV59iCYeT340VQA489thjC2688cY7ZJn8NIDSJ/9YJCbu330K+xmU3+7CDYrr/XH4c1juw06kPedj0OttO+8V/eGEiEajwu/3i6qqKukmv/rveAuQBx0dHS8qL69Clu8zNjZ28Up4oE+MR3CDN1DlE6HmubDrtXsSYn0jngA+qZAKKQuYbI/GhVtgv+eW81W2jAmjk59QW1vLBJALTz755FXt7e2XyfJ9QqHQRS/s3fMh8eQ7Z7D717ZF0Os91Bqz7Hk8NAd77bcnsNf7c9gjDkTc0k5+gsfjYQLIhWXLlr2YLredlv6x2MUD9GvAfT+hsbFxuswXau//wRrrZO88RV18Aagu6JxANIYlgacmq6Wd/CoopsQEkIHHH3/8W4r8b6ipkSOaOz4+ftHL/sPAuPi/gXHoZwy3LpR6hc6Gu5tjIgAcNfsmY8JTgSOtE1GX+GUQv4hMTExAJn9y0lVWMgFk4kMf+tB0xl9FhbMhAJL+mUT0tZ3YvqOBufNgth+BVmZaoa1GXeUFEkCBbMG+IDYW8PxklZgEOgyRSCTpKKAgUxxACgJ48cUXX2toaJjevJFV4iTi8YsH5I+UfX/vJO47+dwuMd6EC/wFwJOyECjIiHQFToZiogqoAmjy/3SyCjb5acVGOwrkVjABXJD+C97znvdcnbnXcgoU9U8P1JDtR5F/JCraFkJtv2/PjiVXZjvx7VlYwkHbgr9StgED8UopJ7/TY1wqAujs7Hw10/bLXIHtAr3oTOl//66TUNuvyV8jgg2zYNejlfjTdfY/Lwo2IvMNyBasAL/3RydqpJz8Mm0DHCWALVu2fGb58uUzjr8FAgFHvg8FetJxYGRSPH9iCPoZ52ZjA3/olVjfZ2Mn7J5J7L0cjLgN2YJWT36CLHagowSwZMmSR7P9PSraqlf6ZwZ60Bl/LS2zoLYfrcBW2n6FQEHHu5uxtuBEBEsCelWAHZNfhQx2oGMEoKz+/0m2X859so1OQDbp/+u+EajtV+12icEW3OlBCvyhV2Aj+EIj1hb8azAmfAI3+QbjlUlXQLbJn5x8EtiBjnwDCvxdccUVX5ElSJKZ7pvM91f2/ki4Z82F2n7rbbL9CoGCjxSERIFswRMhrAqgvIBCtqDdk1+WOIAjBNDa2rol3fbLBvLi7QDJsMwX8STY9qN8f6Tt157MyIsJWUBBSOQ5gd5QXFEBOHVDk3/r+WqpJr8Kp+1A2wmA8v0zbb9cstwO6Z+Zekz5/j8C5/tH53ZCbT/ad9dJdowLnYewdxK7vfldyJvMEpRp8tutdKUggPnz52/Wctqvudn6lleU7psJ9Gm/WfV1hopo5gKttE7YfoVAwch/rEPbglhS2ZpxTsDpyS/DNsBWAnj66ac3ZLP9nEC2dF/K90fbfgOzO6VeabHfLQ4NCO5RVIAXmCFItiApAVkmP8FpO9BWAli4cOH9en7fKicg20k/dfVHImn7VeMYnlZYJ22/QqCg5Nq6COx6ZAueC2PVDqUIj4ajUkx+FU7agbYRwLZt2x7v7Oz0m5XoKOmfmWtAZb6Qth+V+Rpsxa3+AXC03QpQItW6hphoc+Mm1uEpvC3460itkKkUnpN2oC2fTLbf+973vvV6/50VEdJs0t+KMl8esv2AgT+y/eokLeFKh7fouVJANVARF99sxh7mOhbEjoOXQlUKEbikeX5OxgFsGVJk+xkp82VF8cRs5wzI9kOX+RqfhUv6aU9m3Mm5+tOqTytY+ip2XU1MvL8KJ91PhxNwW/BnIbmqCDtlB1pOAGT7Kau/ocaedXV10O+SedKPQLYfeu+PLvMlQ8Zfrr0rrfrZ5PQ9YBWwC3xa8M2wTxyMylOeyyk70HIC6Orq2ibDA86W7ktAS/9GIi1wma9P+uUiAFr1acXKd2ZjuTcubvbjVjXqKhQBlw97JihPYQ6ntgGWEgDZfosWLTLV6wrlBGSe9COQ7fdyH7ZV1TB69Zcs8Jdv1Z+pAiIiUIkLtu2n8mHAgODJmFu8Ea6S4rk6ZQdaSgCXXXbZg2avce7cOcigzVbS6f5d2NW/qXUOvMzXe3xyRKu1rPoztnCVZAviVECyfFgIrwKQ5cPMjtOSIYDnn3/+54FAwDStmbVIsqX7Eijd9+Aobt9Ftt858Gk/WQJ/elb9TNzVGIHagieT5wSw5cNeClVL8ZydsAMt+UTq7qOs/jdRFN/soR6zZcIzT/ol/86CMl/o7j40+Z22/Yys+tnwH7OwAcG94MIhPw/VSGELOhEHsGSItbW1vaDafmZJwEyZ8MzGHirQ+f5U5qsYuvvYtepn4v1VWFsw2VUogX0+/zPlFzLAbjsQTgAPP/zw3yur/8r0vzNLAkYCgbnSfa3o7oMu82Vld59CmJqagqz6mXhgFvZ499tgW/BQ1COFLWi3HQgngA984APPZPt7MyRgpEx4tnRfguzdfZws80XPjN6TFWmy7e6EuBUYELSifNhjUwHHCcDubQCUAJS9/7fmz5+fs8yXURLQy4rZ0n0J6DJfBHR3HyeSftRVnzrqWgkKCCJtQSof5gafE3A6IGi3HQglAGX1v7fQ7xghAb1lwnP9PrrMF7q7z5drztte5svKVT8TZAsSCaBAtuC7IXxA0Glb0C47kD4HRgDbt29/rVCZL6MkoKdMeLZ0XwIF/mTv7nNHm33VkO1a9TNBeQHLvDiVQ+XDvAlgxqEy+X/u8DkBO+xAmvy0RYZ8Etl+y5cvv1rPv9FDAloDUrnSfcn2Q5f5sqq7D03MUlr1s+GbzRHo9faBHxltA/ZZ3GbcyTgAFUNR7XUIAXR0dLxq9LSfVhLQ4gRkS/dVpT+6zJdV3X2snJROrfqZWOUKiqs9QRyhReMiAbTP6OTh94adbVNvpR1Ic0kdZ6YJ4JFHHvmSmTJfWkmgUCAwW2MPghXdfQaa50Ovl97dhxSMFc1RnVz16bMppTsYDE4PbLgKCCZg5wSoIOnOkEu8OuWcCrDKDqS5lj4GTBPAypUrHzJ7DS0kkG9S5JL+ydVf8u4+2cp8IUuik9yjld/OVX9kZEQMDQ0l8zDo8+mzKY7jcrmmB1+7Oy7uqMPdZ7J8GEDlUYIRKQrCAyPOKSUrtgHJoF9GfMEUATz33HOP57P9kCSQzwnIlu5LQJf5sqK7T7bWWqjeiOqWyIrCKukEMzw8PJ02TP9Ng5dqORRybz7vDwk/0BY8EowLr8nCIekJRn3RSvHIqDNbAbQdSIoiWyzNMAGkAn9rkV8yHwnkKhOerbFHkhQsyPe3s7tPrniGnlXf7DkKrXLe7/cbShumnIBv1ONiAWQLngwaJ4Cwcj+kJNLx1IRXjMedsQVRdiCNh1yEYpgAZs+evUWr7WdFTECV/rkGebF39zE6edGrvhY5bwara8PiCh8u4NUbJltQ/1aAEooOTM0kD5r833VoK4CwA2nrnC+AbugTnnjiiav02n4IEsi8kVxVg0uhuw8xtp5gIGLVNyPnzeCrddhzArsNdBV6NxhLKohs2H7eIw6G7T+aiYgD0HvLR9SG7qqtre3HRmw/sySQPuFzpfsSSqW7j1YCMLrqI+W8GVypKICbanBqjcqHiZh2VeFTFENvgf4D3x32JZ+XXT0rpxceE3Yg7ftJqeVVGXov+tRTT21YsWLFfDtuPpME1IeR66QfoRi6+2gt80WTEbnqWy3nzYAcAWRAcJeiArTagnunCv/en8Me8etEfVKW08SiZ2nHMzNqB1L8QEsgUTcBLFu27Dt2Dox0ElBXuFwn/QjoMl9WdPfRU+Yr1zan0KrvlJw3HBNxx8WtfpwKIBGgyRaMx6Ztv0L44URNMiZAE4ueJT1XIgIrn6eRbUCuiL9pAiDbr7W11fbjUioJ0ODNJ/3J9kOX+XK6u0+mf5/ehENGOW8GZAu2uXCTqWcqvy1ICkFPF+LTsUrxTEaDUZqgpKjIirbiEA+RjZ56GET0emo5aCYAsv1WrVq13qnBoZJArodRqt190oOB6U04ZJbzxgkyIf61IQi95rGp3IRLCiHT9iuEp89Xib7YzJdIWag08ehdoLcHeoglPc1X07zS+otk+1kd+MsGuhla3Wig0yDP5Wk+fhjd3ccL7e4ztzImbkmcVVZp/U0pifxoZadnoE5wVRrKKOfN4NrqSNIW/FMIQ7z9kYTo8MVErPLiYBgpgyMGcgYmEhXiwbFasalxPK9sJxWmVqM2m4+hdbzQGCkU9JtBGFouTrbf9ddf/4adk55uJluSD7FrQ8PFyYfk91/7yiHsl+haAU353TonmKyNZwREgMTs9GNFco9sOBRxiU+fwdXo81ZWiMv8Fy8a/cFowch/PjzeNCau8Go7z0CLlpqubrTPRSGiV4/36oUmQdrZ2flzO148rXBnzpxJTv5cAZBsDPedfdiMv8a6AHTyX5ksimls8tOzoBdLKoDu3aqOyTJhmScGtQVJ5ofT7DSvBtuvEB4c014zgBQrvUNSBbRtM7I9yGcHGp38mgiAbL/Fixe3WPWyidkoWk1BFNrrFuoHmJkn/8fBCfFq/xj0Ow23LYZe74EW496x+uLViU+SkkjBbj/abnyjIQi1BSnLT7UF902Zv25P1C12TOlXYzS+6Z2Ojo7qeoe57EB1gTCKSg1feLUVEp8mPE18egi0tzd6+OG/DmMz/hrB3X1W+6PJgphGQEE/9bmkp4WWgxqggODqGqwt2BuKiUQsqtn2KwSyBY2CtgNqTgHNhUKqIJsapq2F2ZRv2w48q/t6umG6eRrYRic9EUeyGi8YvtZ2EZjXIbqqcaW5FngThp9X+vMhSy9zkKhqoFRjAy3D/UKcmoBdr7++SfS1zJXqHtV5QKqAiKCpqSlrnIB+h95/+higf2M5AShf6gXlj48Z/QDa1w8ODk5LezONPqZlS9pquPaSWWLnEMB/dblFRes8MaAo7iblGbtAfsdfIl4xEA+KWZX6Vh0Kdmp5VunJUahjxDKAHJ3H31EIALRa0/utWrhEjAMd0puqsdswdXugknpmJijt9dUxQQupkQWUVAMpS7o+bb81uQBvvfXWsJ5z/+q+3swqrweff+uIaRJo7FwkhusulPnq8lWIRh/ue3/UFxa312r/fvROsp0DIFKor6/PGy8gJYDqqOwkfvDOQPIHBf+8BWKiqQ12vbmuuPjlrGFLnwFNVhoH9M7pnRLJ01agUNAvc5Kri282J0GTC3Do0KEbtQxaNRtNzdazq8b5PZeafLHKnl+d/ISjoQRsn0h4I+QVB3UUmSTyLKR8cqkBUlzFHhvonYpAJz+932jTHOh3/HrA+tLdmSnHRO5q0E9N9aa/pzlHv0M/RBhqngjNQVIRNPFz2YiaCOCLX/zim3v37t2VbdLTYRSyNuiL0QDMVpfPCqRHRZfXV4vV843HBBovWTrz+hFsUcbnp7Q9F3pRufK/Czkk6bEBWgGKNSPwPw70Q6/XsOASEQS2wPg7b0R8vCps6zOhMUFjXlUFeiZ53u201l/s6+tbrUzyhLqvT/frEft6vciUyKQCAh4DHV79dWLYM3PCvRsR0MzCg1G3+F2ocHARtXqTs1KMaoC2cr85A/zOyvsdqa6Hfsf76ydsfSa0yJKqJgVIq7yZalGGCeC222478fbbb2/W6tdbjcyod50y+dd26U9XCCxcmvP/OxvOXSTCCJ6azN91hgi1UPFOvQdOik0NPHAQbOsuWAS93i01QeiBpUIxALVPRPrqTlsAFAno0kWf+cxn1it7jikZBkq2rcadS1tFmw4LLzCvU4xX5N6bj8RIBWC7zvwymHuC56pxkLlFKFU18NSxc+LwGO4wkK+lVQy7cPaovyIhbvfb072XEoUyx0P6pEeRgO6NUU9Pzz2yDBhiyEzcc5nGgKDLLSJNrQV/7XQ4rvvEWD78bKpKDMRnPnZ6mVo8XTPKS2Y1QNutR945i7sgneJs64R+x68okx/Z3DTXFpDkPk3wzPeUmQ6MIAHdBLB+/fpNx44d65dh0GRLj7xuTp24srlwEYWWhYs0BYbouPhIGBsQpK2AU5BVDTzyzoCYADov/rntIgQM/JHtd0tt0LL7p8WMxjMtArlUXjZ71ywJGHpCx48fXyPDoMlliz2wqsAx3upaMVij3TU4FcbaglReKt0WVHMm9ASFEFsoWdQA2X5PHz+Hu6DXB/X8CVYG/tTj7oXyN3IRgxkSMEQAt99++5t79ux53emBkyvzrb3GK27NExCk1V/3ngysAramVEC+rkZ6tj7FrAa+ubsXer2GrqXQ613jC2s++qsHNGlV+1wLEecbJ0ZJwLBGGhgYWDs6OhoVkoICgtlsweqmFjHo1i/Bz0SxtuDJmEv8KuhLBnv0Am27OqkGyPb70zlgYI1sPy+2rdbX67BJP6TgyM3RW72pULEPIyRgmADuuOOOEz09PVucnui5Vi+yBYkEMgND7vaFxidtEGsLUnJQokr/YLUiw9IpNfDNPdhaDoGFS6DXu90/BbP90lN0EU0/ECRg6lt87nOf+1Jvb++IkwSQzxajvIB0WzAwd15e268QKA1qPIyTgmQLbo8Yq3yDiAM4rQYo3bdvCvc8fbPblPeLI0ey/W6pwTxneqbpJd2MQOu/00MCpmno+PHj9zlJAIXk8AOr5k0HhhD54EdCCagt+HKkRgwm9GcwouIATqkB2k5tPQbs30C23xxsuwqS/mZtPzWLz2yxVr3vWysJmCYAsgWVrcARpwigkBx+f4tfXDunTrR0LBRTAnNKbjCEnXxPhPSnqpqpAqNHDWgpVmEElPGHtP0a53dCbb8l7qjoNnHcV5X7hVSqVhgpOa6FBCBP7NSpU9eq5wScQCF2pHMCemy/QjhN5wSAg/dwzCsOxby6J6ddCovUgNEONdlwaCwotr8L3DlW1150mhOz+hu/XzWLT2+F3rwT1WDMoBAJQAggFRD8nVMEUIgdyRa8swG7ap8NYQ0QIyrAym1AtoGEUgMPgE/7GbF18+FGZeU3YvvROMyVxWcWWtLE8727XNs5mGZas2bNNU7ZglrKYd1aF4GmcdI5geEwzhYcSrjEyxF9jgByVbZLDbx6Zhxq+1U1NhuydXOBAn9f0Znvr2bx0SptVZ8Gs6W/aI5kK0IK9SIOHDjwPScIQIscrlMm/z1N2DPcp0NYW/CFiF9MJip1vVQnYFQNUOAPfdbfM68Ler3P1eo77ac1i8+OMV4I9B0zSQBKAOvWrfs3p23BfLjZHxXLvDiGpurSY0BbcCpRIZ4NB2wdFHaqgaeOn4PafoF5C0zZuplI5vtrtP3UQztas/hkQSYJwLMRjhw5crsTN6Y1ow6tAqh82CRQBrwVrRYn49q9bDvjAGbUAOX7Q20/C8p8aTntp2bx5Tu0YwWQJJNOAnACuO22257bv3//LrsHotaXQR16qFY/EsjkIIIeFaBWZXISWtTAD8Cn/Zo7OsUUuMxXIdvP6iw+J5SAJXfS39+/2m5bUE+fgLsawtCAIJUPm4riAoJkC/4lVqXpd2UajLnUAOX7Q20/f50YqmmCfvevBybzTny18aYTch9ZAiyTBCwZPWQLHjhwYLus7EedetbWYVVAXygGvd6zIW0qILN2vIxq4BFkhV8FlNSFBNl+Sz3RrHIfkcVnFvn6ApqFZcvHZz/72ZvttgX1BKTIFmxzY21BZOEQsgW3h+Wa3EbUwAvKyo+0/ajMF9r2yyzxjc7iQ6zURUcAhH379n3NzgeVrZlGLpAtSFsBJNDlw34drdV0TkDWWn8xbxU26cflFt65HdDvSLZf+nbQiiw+s7CShCwlADonYKctmKuefi6QLXhlFU66U/mw88AiomQLalEBsgalnjkxDA38Bea2Y22/yth0kU8rs/gQaqooCYDQ09Nzo10Pysg5eStsQeQ5AbIFC50TkC0OkIyJTEXEo0ewtt84uMzXNzxnp0tvW5nFZ3rbY2HCl+UEYHf5ML2++HJvHG4LorsKGa0Z4CQePIwN/FF3HyTI9qN8fzM59qUAW7QjlQ+zyxY0kqdOKgBtC45FsLYgKYF8MHJc1CpQ0O+1s0DryoLuPvfWjiRXfT1xI6dg5ZbEFgIgW3Dv3r0/soXRDOyHKSCItgUHQlHsOYFw/nMCMslX9OpvRXefllgwZxdmVgAWgMqHKUrA8q5CuSoFF8KdDWGsLRivgGYIXjgtmNv+crpVm4odfWOiZzwEu54V3X0+X/E3gnKir6WucTQyUhoEQJCpq1A2PNASgl4PXT6MYgFGyofZBQp+PnhI7u4+X66ZEPXui311I5WZbVuhLXZ4bCUAu8qHGfXF6ZwA0hYkDIPLhz0bqpM2DvDoX4ekL/P1adfIjD21LOopG6wOUtpuIPf29q6zOiBoZj+MVgHvgsuHvR3z5bQFnYwDkO33zMlh3AW9PniZr7s8uW1JGQ5VlXQMQAXZglaXDzOzr6NzApQmDN3HwU8LZl+xnKwP8O192EIf6O4+H/PmL/Ml65l+q9WJIylkVncVMts4g+oHIm3Bs9EKaPmwU3F3VlvQioYhWkC235+HgfFdC7r73OkezDvJqRS6jLCamBwhADu6CpmpW0e2ILqI6GmwLfhjRQVkswWtahiSd/XffwZ6PXR3n/XeUUXZFd4eWXXslgkgC6zuKmTW312rbAOw5cOwtuBUjq5CdlcIonz/08AyX/5kmS9sd5/PVmkLjuo9S8IxAJOwsnwYIn8afU7Ajq5CdvraFNz84RFsdx90ma9/8Z4TtUL79svuSst5Sd4GNecoAVD5MKtsQURAjGzBa2uwNsxg0NquQnbGAcjzh5b56rxEBIFDcqUrKG7w6ZvQTsVRsiFbGe+SIgCC012FCqsA7Es4HbW+q5Ad24DD4yHxYt8YkLFrxVAttszXbVX680Go2KfThVZVWF1qXAoCsLKrECLDi2xBeFchi1WAHTIWmvGXWv2R+JR7QqxyGfP2ZTkfYEdehxSVJKzqKoR6gPCuQvEKMRJCnxOohcY/8uG3Zyegth919xny4AJwtRVx8aUq41WSZDkfYEcDWGlKyVjRVUhPpeB8sKKrUF84bllXIasTgqCn/Vxu4ZmHLfK5xjUq5laaW09ksATt6PwkDQEUQ1ch5DkBsvHGQmHo9dL7CVi1j6UqP1DbL1nmCxd4m6NM/FsSZ0z75+ViCUpVTM6K8mHIgpl3gWMBR5X5b1VXISviAJTv//QJbL4/2va72zecDOQh3rsTSVXpsCM9WSoCoHMC6K5CyNNUV/qi4gYfdlAgVQBBVQFWyEfy/KG23/xOqO23yhUSV7unpu/f7OlIO6LwrAAygO4qhJRyVJzhq/WhZHYZCr3RCjFpQVchdByA8v2hth919wHbfndXXaxOzDbudKr7sjrWypIAyBZ86aWXfnD06FHI9VCJHTSQKDpMraOpljwSp4PYcwL5KgcZJoBhrPKh1R+JT3nOi8WVM9WU2WCezMVCEKiQ9Rhkd3c3bQUul/XBvXLrv4upAG4FaxdhMacOU/3Xe/KwaHnmIej9Hl5wuejpeC/kWq76JhFbgDvu6wlPiWu3fkt4QlMyzzU6/LZZsu903C3xA9ug/PxW1i936ZvbxM5P/TPsemeiQjTFE8JbaX7fWd2Db87cMtKPIYBkmS+s7bfkj/8r++S/b8eOHRs5BqADygN7TflD2gajc47uFs1978CuF3V7Rf858xF21+iQqN35Mvx+m0fPJH/Mwt3YLGIeXIJL9fg50bX7NzJP/hOyTn6pCSBNBUiLS9/YBr3egNdv+pxAwy+sq76+suf3JvcmPhFt64J+p1WvbhU8hkuUABTmPE7ySdbvVzf4rph/6A/Qa54xoQJo7+9TfqxCTXBCdPUeMv79Zs3FqhJFgTX39sg8hF9XxvALTADmsEn5kTYUu+LNbckgFAqjVQFxbtKYy9D4iyctv98lJ3cLT9RAQpS/ToSbsQSw8hVe/UueABQGHZH5QVLwiYJQSJwKxXTbgoE3dyj7/0Hr7zcaTpKA06t/1+7fiprxIZmH7hZl7O5iAsCQwGaSU7J+PwpCUTAKhajLIwbGtfvXlQoJ1e58xb777T0o6s5r36q4mmaLMNAyJcW1ZOcvZB6yo8Ww+hcNAaSwUeYvhw5G9Qqv5vJhda/8RFQG7S1ldemRnRpnv1uI1nnYbdcb22S3/TamlCsTAFAFvCYuJFNICQpGIW3BJAkMFw59eM6eEjV73rL/fkfPiDlDpwpL/6ZZIubBpdRaEXgFg2y/TcUyr4pJAagqQNqAIDoodc5TU9AWrHv5J47d74qjfyow+30iPLcTqzze/KnsY3RdMU2ooiKAlC0oLbtSUGrJTmxA8ORI7mOtNXt/b6ntV/B+gxNiyck9uef/nPnQz5tzbE8x2H6vMQFYCyKAE7J+OQoIIm3BoLdaDGSxBSnwF3hjh/P323swqy3oItuvAdfbj57pCnDiVbmv/kVJAMVgC6IHal9wpi1I6b522H4F7zcaVrYCMwOClXM7oJ+zUCFWyW2/76cUKhOADSRA2VXS2oIUpKJgFQpRt0f0p50Pv5Dv/4o893vmyEXnBNwtrSJSHYBdvwjy/SkutbEY51JREkAKcp8TAAer+l0107YgJf3YbfsVwtITqeQgl1skZrVjr/3HX8hu+20oFtuvZAgglWUltS2ItqtOnhtN5vs7YfsVvF9FAdA5AZ+y+iNtPwr8SW777U4lqhUl3KK4QSpgtfJTL+OXW/nq1uTgHWxfjHlZsaho2v+GtC+DYgFVtbUienIv5Ho1Y0OyT37plWghSFsRSCu6u7tp73WvYDDsx3Zl9V9dzDdQWexvIFVs4QSPRQav/mVIACms47HIsBn3FaPtV5IEkMq+ep3HJMMmkOLcVAo3UllCL4VVAMMubCxW269kCSAlx77PY5NhMV4vZtuvlBVAkpmFxKcFGSUzxgQTgJwqYKTUXhBDKmwpttN+5aYARKoYw24eqwwwijbfv6wIIIUNPF4ZYGwqBdsvE0WfCZgL3d3ddGLwJh63DACozFdnKd5YZQm/NFYBDB5L5UoAsncVYhQNpO/uwwSQZ98m2BZk8OpfngQge/kwhvT4fjF092ECyE8CmwWfE2DoR0nafmVHACls5PHM0DtmSiXfPx9K1gbMRHd3NymBtTyuGRpQsrZfuSoAVQVwQJChBevK5UbLhgBk7yrEkAavl1q+PxPA3yB1VyEGr/5MANaqALYFGflwXynm+zMBXEwCUncVYjiG0XLcIlaW6ctmFcCYMSbKwfbLRNnYgJlgW5CRBurus7Icb7yyjF/6BsG2IKPMFWHZEgCXD2OksL2cbD8mgItJgG3B8saoKPN4UCWPAe4nUMbYVG62HxPATBVA8o9twfJDyXT3YQJgFcDQj43laPsxAWRXASQDuatQ+aCkuvswAYBWBMG2YDm9awYTwEUqgOTgNRwPKPl9/83lbPtlomwzARkMBhMAg8EEwGAwmAAYDAYTAIPBYAJgMBhMAAwGgwmAwWAwATAYDCYABoPBBMBgMJgAGAwGEwCDwWACYDAYTAAMBoMJgMFgMAEwGAwmAAaDwQTAYDCYABgMBhMAg8FgAmAwGEwADAaDCYDBYNiA/xdgAI48f6T4c9ZhAAAAAElFTkSuQmCC;" parent="plHdwqoXBkwrzOqFxZTN-13" vertex="1">
          <mxGeometry x="27.5" y="22.5" width="55" height="55" as="geometry" />
        </mxCell>
        <mxCell id="plHdwqoXBkwrzOqFxZTN-14" value="Firebase" style="ellipse;shape=cloud;whiteSpace=wrap;html=1;" parent="1" vertex="1">
          <mxGeometry x="-290" y="670" width="120" height="80" as="geometry" />
        </mxCell>
        <mxCell id="plHdwqoXBkwrzOqFxZTN-16" style="edgeStyle=orthogonalEdgeStyle;rounded=0;orthogonalLoop=1;jettySize=auto;html=1;entryX=0;entryY=0.5;entryDx=0;entryDy=0;" parent="1" source="plHdwqoXBkwrzOqFxZTN-15" target="plHdwqoXBkwrzOqFxZTN-22" edge="1">
          <mxGeometry relative="1" as="geometry">
            <mxPoint x="-230" y="600" as="targetPoint" />
          </mxGeometry>
        </mxCell>
        <mxCell id="plHdwqoXBkwrzOqFxZTN-15" value="ICB" style="label;whiteSpace=wrap;html=1;align=center;verticalAlign=bottom;spacingLeft=0;spacingBottom=4;imageAlign=center;imageVerticalAlign=top;image=img/clipart/Gear_128x128.png" parent="1" vertex="1">
          <mxGeometry x="-410" y="530" width="120" height="80" as="geometry" />
        </mxCell>
        <mxCell id="plHdwqoXBkwrzOqFxZTN-17" value="" style="group" parent="1" vertex="1" connectable="0">
          <mxGeometry x="40" y="517.5" width="220" height="115" as="geometry" />
        </mxCell>
        <mxCell id="EjAEQaRO7dp1GLkJqz64-1" value="&lt;b&gt;DSWFD Backend&lt;/b&gt;" style="rounded=1;whiteSpace=wrap;html=1;" parent="plHdwqoXBkwrzOqFxZTN-17" vertex="1">
          <mxGeometry width="220" height="100" as="geometry" />
        </mxCell>
        <mxCell id="plHdwqoXBkwrzOqFxZTN-5" value="" style="shape=image;verticalLabelPosition=bottom;labelBackgroundColor=default;verticalAlign=top;aspect=fixed;imageAspect=0;image=https://spring.io/img/spring.svg;" parent="plHdwqoXBkwrzOqFxZTN-17" vertex="1">
          <mxGeometry x="29.995714285714286" y="9" width="31.428571428571427" height="31.428571428571427" as="geometry" />
        </mxCell>
        <mxCell id="plHdwqoXBkwrzOqFxZTN-22" value="SOAP" style="rounded=0;whiteSpace=wrap;html=1;" parent="plHdwqoXBkwrzOqFxZTN-17" vertex="1">
          <mxGeometry x="-15.714285714285714" y="25" width="31.428571428571427" height="55" as="geometry" />
        </mxCell>
        <mxCell id="plHdwqoXBkwrzOqFxZTN-23" value="REST" style="rounded=0;whiteSpace=wrap;html=1;" parent="plHdwqoXBkwrzOqFxZTN-17" vertex="1">
          <mxGeometry x="90" y="85" width="59.29" height="30" as="geometry" />
        </mxCell>
        <mxCell id="plHdwqoXBkwrzOqFxZTN-30" style="edgeStyle=orthogonalEdgeStyle;rounded=0;orthogonalLoop=1;jettySize=auto;html=1;exitX=0.5;exitY=0;exitDx=0;exitDy=0;entryX=0.25;entryY=1;entryDx=0;entryDy=0;" parent="1" source="plHdwqoXBkwrzOqFxZTN-18" target="plHdwqoXBkwrzOqFxZTN-23" edge="1">
          <mxGeometry relative="1" as="geometry" />
        </mxCell>
        <mxCell id="plHdwqoXBkwrzOqFxZTN-33" style="edgeStyle=orthogonalEdgeStyle;rounded=0;orthogonalLoop=1;jettySize=auto;html=1;exitX=0.5;exitY=1;exitDx=0;exitDy=0;entryX=0.5;entryY=1;entryDx=0;entryDy=0;" parent="1" source="plHdwqoXBkwrzOqFxZTN-18" target="EjAEQaRO7dp1GLkJqz64-6" edge="1">
          <mxGeometry relative="1" as="geometry">
            <Array as="points">
              <mxPoint x="90" y="800" />
              <mxPoint x="445" y="800" />
            </Array>
          </mxGeometry>
        </mxCell>
        <mxCell id="plHdwqoXBkwrzOqFxZTN-34" value="authenticates" style="edgeLabel;html=1;align=center;verticalAlign=middle;resizable=0;points=[];" parent="plHdwqoXBkwrzOqFxZTN-33" vertex="1" connectable="0">
          <mxGeometry x="0.6504" y="-1" relative="1" as="geometry">
            <mxPoint as="offset" />
          </mxGeometry>
        </mxCell>
        <mxCell id="plHdwqoXBkwrzOqFxZTN-18" value="DSWFD Frontend" style="rounded=1;whiteSpace=wrap;html=1;align=right;spacingRight=19;" parent="1" vertex="1">
          <mxGeometry x="-40" y="720" width="180" height="70" as="geometry" />
        </mxCell>
        <mxCell id="plHdwqoXBkwrzOqFxZTN-19" value="" style="shape=image;verticalLabelPosition=bottom;labelBackgroundColor=default;verticalAlign=top;aspect=fixed;imageAspect=0;image=https://openui5.org/5bdd288371ed8100415f04563acc8dfe/phenix_blue.svg;" parent="1" vertex="1">
          <mxGeometry x="-20" y="737.5" width="35" height="35" as="geometry" />
        </mxCell>
        <mxCell id="plHdwqoXBkwrzOqFxZTN-21" value="" style="shape=image;verticalLabelPosition=bottom;labelBackgroundColor=default;verticalAlign=top;aspect=fixed;imageAspect=0;image=data:image/svg+xml,PHN2ZyB4bWxucz0iaHR0cDovL3d3dy53My5vcmcvMjAwMC9zdmciIHZpZXdCb3g9IjAgMCAxMjc0LjM3IDcxOCIgZGF0YS1uYW1lPSJMYXllciAxIiBpZD0iTGF5ZXJfMSI+PGRlZnM+PHN0eWxlPi5jbHMtMXtmaWxsOiMzZGRjODQ7fTwvc3R5bGU+PC9kZWZzPjx0aXRsZT5BbmRyb2lkIHJvYm90PC90aXRsZT48cGF0aCBkPSJNOTMwLjc3LDUzNi40MmE1My4wNyw1My4wNywwLDEsMSw1My4wNi01My4wOCw1My4xNCw1My4xNCwwLDAsMS01My4wNiw1My4wOG0tNTg2LjU0LDBhNTMuMDcsNTMuMDcsMCwxLDEsNTMuMDYtNTMuMDgsNTMuMTMsNTMuMTMsMCwwLDEtNTMuMDYsNTMuMDhNOTQ5LjgsMjE2Ljc3LDEwNTUuODUsMzMuMDlBMjIuMDYsMjIuMDYsMCwxLDAsMTAxNy42NCwxMUw5MTAuMjUsMTk3Yy04Mi4xMi0zNy40OC0xNzQuMzUtNTguMzUtMjcyLjc2LTU4LjM1UzQ0Ni44NiwxNTkuNTUsMzY0Ljc0LDE5N0wyNTcuMzYsMTFhMjIuMDYsMjIuMDYsMCwxLDAtMzguMjIsMjIuMDZMMzI1LjIsMjE2Ljc3QzE0My4wOSwzMTUuODIsMTguNTMsNTAwLjE4LjMxLDcxOEgxMjc0LjY5Yy0xOC4yNC0yMTcuODItMTQyLjc5LTQwMi4xOC0zMjQuODktNTAxLjIzIiBjbGFzcz0iY2xzLTEiLz48L3N2Zz4=;" parent="1" vertex="1">
          <mxGeometry x="210" y="742" width="46.16" height="26" as="geometry" />
        </mxCell>
        <mxCell id="plHdwqoXBkwrzOqFxZTN-25" style="edgeStyle=orthogonalEdgeStyle;rounded=0;orthogonalLoop=1;jettySize=auto;html=1;entryX=0.5;entryY=1;entryDx=0;entryDy=0;entryPerimeter=0;" parent="1" source="EjAEQaRO7dp1GLkJqz64-1" target="plHdwqoXBkwrzOqFxZTN-6" edge="1">
          <mxGeometry relative="1" as="geometry" />
        </mxCell>
        <mxCell id="plHdwqoXBkwrzOqFxZTN-28" style="edgeStyle=orthogonalEdgeStyle;rounded=0;orthogonalLoop=1;jettySize=auto;html=1;exitX=1;exitY=0.5;exitDx=0;exitDy=0;entryX=0;entryY=0.5;entryDx=0;entryDy=0;" parent="1" source="EjAEQaRO7dp1GLkJqz64-1" target="EjAEQaRO7dp1GLkJqz64-6" edge="1">
          <mxGeometry relative="1" as="geometry" />
        </mxCell>
        <mxCell id="plHdwqoXBkwrzOqFxZTN-29" value="verifies auth" style="edgeLabel;html=1;align=center;verticalAlign=middle;resizable=0;points=[];" parent="plHdwqoXBkwrzOqFxZTN-28" vertex="1" connectable="0">
          <mxGeometry x="-0.1897" y="1" relative="1" as="geometry">
            <mxPoint as="offset" />
          </mxGeometry>
        </mxCell>
      </root>
    </mxGraphModel>
  </diagram>
  <diagram id="CrCEcvxFbZehDNLu8sE-" name="fe-only">
    <mxGraphModel dx="2668" dy="1148" grid="1" gridSize="10" guides="1" tooltips="1" connect="1" arrows="1" fold="1" page="1" pageScale="1" pageWidth="850" pageHeight="1100" math="0" shadow="0">
      <root>
        <mxCell id="0" />
        <mxCell id="1" parent="0" />
        <mxCell id="UesbSPqziF9T87_pEKpf-1" value="" style="group;dashed=1;strokeColor=none;rounded=0;dashPattern=12 12;" parent="1" vertex="1" connectable="0">
          <mxGeometry x="-240" y="40" width="770" height="460" as="geometry" />
        </mxCell>
        <mxCell id="UesbSPqziF9T87_pEKpf-2" value="" style="rounded=0;whiteSpace=wrap;html=1;" parent="UesbSPqziF9T87_pEKpf-1" vertex="1">
          <mxGeometry width="770" height="460" as="geometry" />
        </mxCell>
        <mxCell id="UesbSPqziF9T87_pEKpf-3" value="BwFPS" style="text;html=1;align=center;verticalAlign=middle;resizable=0;points=[];autosize=1;strokeColor=none;fillColor=none;" parent="UesbSPqziF9T87_pEKpf-1" vertex="1">
          <mxGeometry width="60" height="30" as="geometry" />
        </mxCell>
        <mxCell id="UesbSPqziF9T87_pEKpf-28" value="" style="group" parent="UesbSPqziF9T87_pEKpf-1" vertex="1" connectable="0">
          <mxGeometry x="110" y="360" width="180" height="70" as="geometry" />
        </mxCell>
        <mxCell id="UesbSPqziF9T87_pEKpf-21" value="DSWFD Frontend" style="rounded=1;whiteSpace=wrap;html=1;align=right;spacingRight=19;" parent="UesbSPqziF9T87_pEKpf-28" vertex="1">
          <mxGeometry width="180" height="70" as="geometry" />
        </mxCell>
        <mxCell id="UesbSPqziF9T87_pEKpf-27" value="" style="shape=image;verticalLabelPosition=bottom;labelBackgroundColor=default;verticalAlign=top;aspect=fixed;imageAspect=0;image=data:image/svg+xml,PHN2ZyB4bWxuczp4bGluaz0iaHR0cDovL3d3dy53My5vcmcvMTk5OS94bGluayIgeG1sbnM9Imh0dHA6Ly93d3cudzMub3JnLzIwMDAvc3ZnIiB2aWV3Qm94PSIwIDAgMzU4LjQ2NCAyMzUuOTUyIj4mI3hhOwk8ZGVmcz4mI3hhOwkJPHN0eWxlPi5he2ZpbGw6I2ZmM2UwMDt9LmJ7ZmlsbDojZmZmO30uY3tmaWxsOiMxMjczZmY7fS5ke2ZpbGw6I2ZmZDgxNTt9PC9zdHlsZT4mI3hhOwkJPHN5bWJvbCB2aWV3Qm94PSIwIDAgOTMuMjI0IDExMiIgaWQ9ImEiPiYjeGE7CQkJPHBhdGggZD0iTTg3LjI2OSwxNC44MTlDNzYuODY5LS4wNjYsNTYuMzI4LTQuNDc4LDQxLjQ3Nyw0Ljk4NEwxNS40LDIxLjYwOEEyOS45MjEsMjkuOTIxLDAsMCwwLDEuODc2LDQxLjY1MSwzMS41MTQsMzEuNTE0LDAsMCwwLDQuOTg0LDYxLjg4MiwzMC4wMDYsMzAuMDA2LDAsMCwwLC41MDcsNzMuMDY1LDMxLjg5MiwzMS44OTIsMCwwLDAsNS45NTUsOTcuMTgxYzEwLjQsMTQuODg3LDMwLjk0MiwxOS4zLDQ1Ljc5MSw5LjgzNUw3Ny44MjksOTAuMzkyQTI5LjkxNSwyOS45MTUsMCwwLDAsOTEuMzQ3LDcwLjM0OWEzMS41MjIsMzEuNTIyLDAsMCwwLTMuMS0yMC4yMzIsMzAuMDE5LDMwLjAxOSwwLDAsMCw0LjQ3NC0xMS4xODIsMzEuODc4LDMxLjg3OCwwLDAsMC01LjQ0Ny0yNC4xMTYiIGNsYXNzPSJhIi8+JiN4YTsJCQk8cGF0aCBkPSJNMzguOTI5LDk4LjU4MmEyMC43MiwyMC43MiwwLDAsMS0yMi4yMzctOC4yNDMsMTkuMTc2LDE5LjE3NiwwLDAsMS0zLjI3Ni0xNC41LDE4LjE0MywxOC4xNDMsMCwwLDEsLjYyMy0yLjQzNWwuNDkxLTEuNSwxLjMzNy45ODFhMzMuNjMzLDMzLjYzMywwLDAsMCwxMC4yLDUuMWwuOTY5LjI5NC0uMDg5Ljk2OEE1Ljg0NCw1Ljg0NCwwLDAsMCwyOCw4My4xMjJhNi4yNCw2LjI0LDAsMCwwLDYuNywyLjQ4NSw1Ljc0OCw1Ljc0OCwwLDAsMCwxLjYtLjdMNjIuMzgyLDY4LjI4MWE1LjQzLDUuNDMsMCwwLDAsMi40NTEtMy42MzEsNS43OTQsNS43OTQsMCwwLDAtLjk4OC00LjM3MSw2LjI0NCw2LjI0NCwwLDAsMC02LjctMi40ODcsNS43NTUsNS43NTUsMCwwLDAtMS42LjdsLTkuOTUzLDYuMzQ1YTE5LjA2LDE5LjA2LDAsMCwxLTUuMywyLjMyNiwyMC43MTksMjAuNzE5LDAsMCwxLTIyLjIzNy04LjI0MywxOS4xNzEsMTkuMTcxLDAsMCwxLTMuMjc3LTE0LjVBMTcuOTkyLDE3Ljk5MiwwLDAsMSwyMi45MTUsMzIuMzdMNDksMTUuNzQ3YTE5LjAzLDE5LjAzLDAsMCwxLDUuMy0yLjMyOSwyMC43MiwyMC43MiwwLDAsMSwyMi4yMzcsOC4yNDMsMTkuMTc2LDE5LjE3NiwwLDAsMSwzLjI3NywxNC41LDE4LjQ1MywxOC40NTMsMCwwLDEtLjYyNCwyLjQzNWwtLjQ5MSwxLjUtMS4zMzYtLjk3OWEzMy42MTYsMzMuNjE2LDAsMCwwLTEwLjItNS4xbC0uOTctLjI5NC4wOS0uOTY4YTUuODU5LDUuODU5LDAsMCwwLTEuMDUyLTMuODc4LDYuMjQxLDYuMjQxLDAsMCwwLTYuNy0yLjQ4NSw1Ljc0OCw1Ljc0OCwwLDAsMC0xLjYuN0wzMC44NDIsNDMuNzE5YTUuNDIxLDUuNDIxLDAsMCwwLTIuNDQ5LDMuNjMsNS43OSw1Ljc5LDAsMCwwLC45ODYsNC4zNzIsNi4yNDUsNi4yNDUsMCwwLDAsNi43LDIuNDg3LDUuNzczLDUuNzczLDAsMCwwLDEuNi0uN2w5Ljk1Mi02LjM0MmExOC45NzgsMTguOTc4LDAsMCwxLDUuMy0yLjMyOCwyMC43MTgsMjAuNzE4LDAsMCwxLDIyLjIzNiw4LjI0MywxOS4xNzEsMTkuMTcxLDAsMCwxLDMuMjc3LDE0LjUsMTgsMTgsMCwwLDEtOC4xMywxMi4wNTRMNDQuMjI5LDk2LjI1M2ExOS4wMTcsMTkuMDE3LDAsMCwxLTUuMywyLjMyOSIgY2xhc3M9ImIiLz4mI3hhOwkJPC9zeW1ib2w+JiN4YTsJPC9kZWZzPiYjeGE7CTx1c2UgeGxpbms6aHJlZj0iI2EiIHRyYW5zZm9ybT0idHJhbnNsYXRlKDM0LjIyOCAyOS4yNjcpIHNjYWxlKDEuNTg0KSIgaGVpZ2h0PSIxMTIiIHdpZHRoPSI5My4yMjQiLz4mI3hhOzwvc3ZnPg==;clipPath=inset(2.28% 41% 5.84% 2.33%);" parent="UesbSPqziF9T87_pEKpf-28" vertex="1">
          <mxGeometry x="10" y="7" width="52.6" height="56" as="geometry" />
        </mxCell>
        <mxCell id="UesbSPqziF9T87_pEKpf-4" style="edgeStyle=orthogonalEdgeStyle;rounded=0;orthogonalLoop=1;jettySize=auto;html=1;exitX=0.5;exitY=0;exitDx=0;exitDy=0;entryX=0.75;entryY=1;entryDx=0;entryDy=0;" parent="1" source="UesbSPqziF9T87_pEKpf-5" target="UesbSPqziF9T87_pEKpf-17" edge="1">
          <mxGeometry relative="1" as="geometry" />
        </mxCell>
        <mxCell id="UesbSPqziF9T87_pEKpf-5" value="DSWFD Frontend" style="rounded=1;whiteSpace=wrap;html=1;align=right;spacingRight=15;" parent="1" vertex="1">
          <mxGeometry x="89.28999999999999" y="400" width="190" height="70" as="geometry" />
        </mxCell>
        <mxCell id="UesbSPqziF9T87_pEKpf-6" value="MSSQL" style="shape=cylinder3;whiteSpace=wrap;html=1;boundedLbl=1;backgroundOutline=1;size=15;" parent="1" vertex="1">
          <mxGeometry x="20" y="60" width="60" height="80" as="geometry" />
        </mxCell>
        <mxCell id="UesbSPqziF9T87_pEKpf-7" value="" style="group" parent="1" vertex="1" connectable="0">
          <mxGeometry x="290" y="197.5" width="110" height="100" as="geometry" />
        </mxCell>
        <mxCell id="UesbSPqziF9T87_pEKpf-8" value="Keycloak" style="rounded=1;whiteSpace=wrap;html=1;verticalAlign=bottom;" parent="UesbSPqziF9T87_pEKpf-7" vertex="1">
          <mxGeometry width="110" height="100" as="geometry" />
        </mxCell>
        <mxCell id="UesbSPqziF9T87_pEKpf-9" value="" style="shape=image;verticalLabelPosition=bottom;labelBackgroundColor=default;verticalAlign=top;aspect=fixed;imageAspect=0;image=data:image/png,iVBORw0KGgoAAAANSUhEUgAAAQAAAAEACAYAAABccqhmAAAACXBIWXMAAAsTAAALEwEAmpwYAAAAGXRFWHRTb2Z0d2FyZQBBZG9iZSBJbWFnZVJlYWR5ccllPAAAKJdJREFUeNrsXXuQXFWZPzP9mkf3vJNJZpLJZMjTgCQu+EREAavchSHUmnItlMQoLiIs+UfXRS1CsaUsWFTcXZRaQJIAIhVREtxSBBQELNeo5P0YzJuZTDIzmWdm+t17v07fsdPTj/v43XtPd3+/qqlInNzue+85v/M73+8731eRSCQEg8EoT1QwATAYTAAMBoMJgMFgMAEwGAwmAAaDwQTAYDCYABgMBhMAg8FgAmAwGEwADAaDCYDBYDABMBgMJgAGg8EEwGAwmAAYDAYTAIPBYAJgMBhMAAwGgwmAwWAwATAYDCYABoPBBMBgMJgAGAwGE4CN6O7uXqn8sUn5+Rg/jZLECeVnw44dO17gR8EEkDn5G5Q/jis/9fw0Sh6rFBLYxY9BiEp+BNPYwJO/bLCJHwErgPTVv1P54xgPh7LCFxQVsJkVAIOwmR9B2WFjatvHBFDmq/81goN+5YgFqW0fEwCv/owyxYbU9o8JoExX/w2plYBRnqCg78ZyfgBlGwRk24+Rho/v2LHjNVYA5YVNPPkZaWOBFUAZrf6U8fc2j3tGGsrSFixXBcCJIIwZY6IcbcGyIwDlJa8WbPsxZoK2gxuYAHj1Z5Qv7i03W7CsCEB5uRsF234MXiCmUTZBwBSz7xIc+WcURtnYguWkADby5GdoxGbeApTW6n+N8sdaHtcMjViQyhJlAiih1Z/B0DVmysEWLHkCUF7iOsG2H0M/yuKcQEkHAVMMToE/jvwzjGLhjh07jrMCKE7waT+GWWxmBVCcq3+n4DJfDAxuLtVKwqWsADjjj8FjqRwJIGX73cTjlgHCglQWKRMAMzajTLGhFG3BkiOAlO13OY9XBhj1pbiwlFQQkMt8MWxASXUVKjUFsJEnP4O3l2WoANj2Y9iIkikfVkoKYDOPS4ZdSrNUAoIlQQDc3YdhM0qmq1CpKABe/Rl2oyS6ChU9AXB3H4ZDKInTgkUdBCwG22+yyi9OtV4CuVZtaELM6z8i9TuZXPReEZuLWRi9Jw4L38nDsg/Doi4f5i5yApO6u8/hBZeLno73wq7nFQkxuOIjYuWrW6W83/1XrRG+VR8WNf4A5oJXKaS38xVR/8pPZB6DpAKu4S2A/as/dfeRtszXWG0TdPITwl2XilPLPiiG2pfIt/IHmsXRyz8ujogq6HXPX3mdCHUslXkofiyVfcoE4MDqLy32XXIF9Ho+n08If13yf7997a3S3e+u6y58p3A8IQbGJ6DXHrlhvfRjsVhtwaIkANm7+/Q3zxdD9a2w67niMRFauGL6v6cCTcpq+wlp7pcUyVDb4un/7lU2KyIagV0/Vt+sKIHrZR6SRdtVqFgVgOSr/5XQ61U0zRbC67vo73re/w8i4quW4n4zFUksIcSpYBT6GeMf7RbxqhqZX3tRdhUqOgKQvbsPBf6mfLWw63kScRFt75rx9xFvtei58gbn71chIlIkmTgbd4nY+XHY58QVshu77p94YSpnAkgxrLRSK+L2imNty6HXjLcpt+zKbtZQ0I2Cb47drzIpj+XZihypwCqUycs+LCKt82UeojelslKZACzCRiGx7be/6wqFBDyw6/kqFDk9qz3v76jBN0fu96o1SSWSU7ZH42JidAT6maOsAsqTAGTv7kNBP1TCj4rQosI2IgXf+rvsr38y1jIvaUkWwjGXsh2KhGGfG+5YKoJLVsk8VC8vpq5CxaQANsr85Wjvj0TS9qvWFkvYp6zEdmPfR7V9ZtIWDIahn10EKqBoTgsWBQHI3t2HVn6o7ZeIa1r9VVAQjoJxdoEUR7rtVwhkC8aDk7DPJ1uQXAGJUTTnBCqLYPI3yLyvosAfevWvaJyVM/CXU2pf/glbbEH6DL2Kg2zBk1gRkMwLiNW3yDx07y4GW7AYFMAGIXHg72j7crzt16E/1ZeCcftt2ApQAlI2269grEK4RWR8FPY9yBaUXAUQNjMBmFv9iUHvlfX70Uk/dL5/fJ7xQCIF5Sg4Z9n9Bprz2n6F8NdKbCIP2YJFcE7gGiYA45DaUiHbDwmvyyVizXNMXUNrcM4IktmHXuPbjEllL4C2BVkFlCgByN7dh4J+lPOPRHix+ViCVbYg5ftrsf00qQCwLTj53o/IPMek7iokswIoq3x/b21gRr6/mX06GoPtiyHXoYAg2hYcv6oozglsltEalLIi0MMPP/zfK1eu/OrixYul+D7nz5+/4Mun8NPjg+LrfzoOu36V2yWCS9+nO/KfCx+oTohn52MP43x/yKX84NaLj9R7RDBRAbvemtqwWOO/QCwjIyPC7XaL6upqYeX4npycFF6vV59iCYeT340VQA489thjC2688cY7ZJn8NIDSJ/9YJCbu330K+xmU3+7CDYrr/XH4c1juw06kPedj0OttO+8V/eGEiEajwu/3i6qqKukmv/rveAuQBx0dHS8qL69Clu8zNjZ28Up4oE+MR3CDN1DlE6HmubDrtXsSYn0jngA+qZAKKQuYbI/GhVtgv+eW81W2jAmjk59QW1vLBJALTz755FXt7e2XyfJ9QqHQRS/s3fMh8eQ7Z7D717ZF0Os91Bqz7Hk8NAd77bcnsNf7c9gjDkTc0k5+gsfjYQLIhWXLlr2YLredlv6x2MUD9GvAfT+hsbFxuswXau//wRrrZO88RV18Aagu6JxANIYlgacmq6Wd/CoopsQEkIHHH3/8W4r8b6ipkSOaOz4+ftHL/sPAuPi/gXHoZwy3LpR6hc6Gu5tjIgAcNfsmY8JTgSOtE1GX+GUQv4hMTExAJn9y0lVWMgFk4kMf+tB0xl9FhbMhAJL+mUT0tZ3YvqOBufNgth+BVmZaoa1GXeUFEkCBbMG+IDYW8PxklZgEOgyRSCTpKKAgUxxACgJ48cUXX2toaJjevJFV4iTi8YsH5I+UfX/vJO47+dwuMd6EC/wFwJOyECjIiHQFToZiogqoAmjy/3SyCjb5acVGOwrkVjABXJD+C97znvdcnbnXcgoU9U8P1JDtR5F/JCraFkJtv2/PjiVXZjvx7VlYwkHbgr9StgED8UopJ7/TY1wqAujs7Hw10/bLXIHtAr3oTOl//66TUNuvyV8jgg2zYNejlfjTdfY/Lwo2IvMNyBasAL/3RydqpJz8Mm0DHCWALVu2fGb58uUzjr8FAgFHvg8FetJxYGRSPH9iCPoZ52ZjA3/olVjfZ2Mn7J5J7L0cjLgN2YJWT36CLHagowSwZMmSR7P9PSraqlf6ZwZ60Bl/LS2zoLYfrcBW2n6FQEHHu5uxtuBEBEsCelWAHZNfhQx2oGMEoKz+/0m2X859so1OQDbp/+u+EajtV+12icEW3OlBCvyhV2Aj+EIj1hb8azAmfAI3+QbjlUlXQLbJn5x8EtiBjnwDCvxdccUVX5ElSJKZ7pvM91f2/ki4Z82F2n7rbbL9CoGCjxSERIFswRMhrAqgvIBCtqDdk1+WOIAjBNDa2rol3fbLBvLi7QDJsMwX8STY9qN8f6Tt157MyIsJWUBBSOQ5gd5QXFEBOHVDk3/r+WqpJr8Kp+1A2wmA8v0zbb9cstwO6Z+Zekz5/j8C5/tH53ZCbT/ad9dJdowLnYewdxK7vfldyJvMEpRp8tutdKUggPnz52/Wctqvudn6lleU7psJ9Gm/WfV1hopo5gKttE7YfoVAwch/rEPbglhS2ZpxTsDpyS/DNsBWAnj66ac3ZLP9nEC2dF/K90fbfgOzO6VeabHfLQ4NCO5RVIAXmCFItiApAVkmP8FpO9BWAli4cOH9en7fKicg20k/dfVHImn7VeMYnlZYJ22/QqCg5Nq6COx6ZAueC2PVDqUIj4ajUkx+FU7agbYRwLZt2x7v7Oz0m5XoKOmfmWtAZb6Qth+V+Rpsxa3+AXC03QpQItW6hphoc+Mm1uEpvC3460itkKkUnpN2oC2fTLbf+973vvV6/50VEdJs0t+KMl8esv2AgT+y/eokLeFKh7fouVJANVARF99sxh7mOhbEjoOXQlUKEbikeX5OxgFsGVJk+xkp82VF8cRs5wzI9kOX+RqfhUv6aU9m3Mm5+tOqTytY+ip2XU1MvL8KJ91PhxNwW/BnIbmqCDtlB1pOAGT7Kau/ocaedXV10O+SedKPQLYfeu+PLvMlQ8Zfrr0rrfrZ5PQ9YBWwC3xa8M2wTxyMylOeyyk70HIC6Orq2ibDA86W7ktAS/9GIi1wma9P+uUiAFr1acXKd2ZjuTcubvbjVjXqKhQBlw97JihPYQ6ntgGWEgDZfosWLTLV6wrlBGSe9COQ7fdyH7ZV1TB69Zcs8Jdv1Z+pAiIiUIkLtu2n8mHAgODJmFu8Ea6S4rk6ZQdaSgCXXXbZg2avce7cOcigzVbS6f5d2NW/qXUOvMzXe3xyRKu1rPoztnCVZAviVECyfFgIrwKQ5cPMjtOSIYDnn3/+54FAwDStmbVIsqX7Eijd9+Aobt9Ftt858Gk/WQJ/elb9TNzVGIHagieT5wSw5cNeClVL8ZydsAMt+UTq7qOs/jdRFN/soR6zZcIzT/ol/86CMl/o7j40+Z22/Yys+tnwH7OwAcG94MIhPw/VSGELOhEHsGSItbW1vaDafmZJwEyZ8MzGHirQ+f5U5qsYuvvYtepn4v1VWFsw2VUogX0+/zPlFzLAbjsQTgAPP/zw3yur/8r0vzNLAkYCgbnSfa3o7oMu82Vld59CmJqagqz6mXhgFvZ499tgW/BQ1COFLWi3HQgngA984APPZPt7MyRgpEx4tnRfguzdfZws80XPjN6TFWmy7e6EuBUYELSifNhjUwHHCcDubQCUAJS9/7fmz5+fs8yXURLQy4rZ0n0J6DJfBHR3HyeSftRVnzrqWgkKCCJtQSof5gafE3A6IGi3HQglAGX1v7fQ7xghAb1lwnP9PrrMF7q7z5drztte5svKVT8TZAsSCaBAtuC7IXxA0Glb0C47kD4HRgDbt29/rVCZL6MkoKdMeLZ0XwIF/mTv7nNHm33VkO1a9TNBeQHLvDiVQ+XDvAlgxqEy+X/u8DkBO+xAmvy0RYZ8Etl+y5cvv1rPv9FDAloDUrnSfcn2Q5f5sqq7D03MUlr1s+GbzRHo9faBHxltA/ZZ3GbcyTgAFUNR7XUIAXR0dLxq9LSfVhLQ4gRkS/dVpT+6zJdV3X2snJROrfqZWOUKiqs9QRyhReMiAbTP6OTh94adbVNvpR1Ic0kdZ6YJ4JFHHvmSmTJfWkmgUCAwW2MPghXdfQaa50Ovl97dhxSMFc1RnVz16bMppTsYDE4PbLgKCCZg5wSoIOnOkEu8OuWcCrDKDqS5lj4GTBPAypUrHzJ7DS0kkG9S5JL+ydVf8u4+2cp8IUuik9yjld/OVX9kZEQMDQ0l8zDo8+mzKY7jcrmmB1+7Oy7uqMPdZ7J8GEDlUYIRKQrCAyPOKSUrtgHJoF9GfMEUATz33HOP57P9kCSQzwnIlu5LQJf5sqK7T7bWWqjeiOqWyIrCKukEMzw8PJ02TP9Ng5dqORRybz7vDwk/0BY8EowLr8nCIekJRn3RSvHIqDNbAbQdSIoiWyzNMAGkAn9rkV8yHwnkKhOerbFHkhQsyPe3s7tPrniGnlXf7DkKrXLe7/cbShumnIBv1ONiAWQLngwaJ4Cwcj+kJNLx1IRXjMedsQVRdiCNh1yEYpgAZs+evUWr7WdFTECV/rkGebF39zE6edGrvhY5bwara8PiCh8u4NUbJltQ/1aAEooOTM0kD5r833VoK4CwA2nrnC+AbugTnnjiiav02n4IEsi8kVxVg0uhuw8xtp5gIGLVNyPnzeCrddhzArsNdBV6NxhLKohs2H7eIw6G7T+aiYgD0HvLR9SG7qqtre3HRmw/sySQPuFzpfsSSqW7j1YCMLrqI+W8GVypKICbanBqjcqHiZh2VeFTFENvgf4D3x32JZ+XXT0rpxceE3Yg7ftJqeVVGXov+tRTT21YsWLFfDtuPpME1IeR66QfoRi6+2gt80WTEbnqWy3nzYAcAWRAcJeiArTagnunCv/en8Me8etEfVKW08SiZ2nHMzNqB1L8QEsgUTcBLFu27Dt2Dox0ElBXuFwn/QjoMl9WdPfRU+Yr1zan0KrvlJw3HBNxx8WtfpwKIBGgyRaMx6Ztv0L44URNMiZAE4ueJT1XIgIrn6eRbUCuiL9pAiDbr7W11fbjUioJ0ODNJ/3J9kOX+XK6u0+mf5/ehENGOW8GZAu2uXCTqWcqvy1ICkFPF+LTsUrxTEaDUZqgpKjIirbiEA+RjZ56GET0emo5aCYAsv1WrVq13qnBoZJArodRqt190oOB6U04ZJbzxgkyIf61IQi95rGp3IRLCiHT9iuEp89Xib7YzJdIWag08ehdoLcHeoglPc1X07zS+otk+1kd+MsGuhla3Wig0yDP5Wk+fhjd3ccL7e4ztzImbkmcVVZp/U0pifxoZadnoE5wVRrKKOfN4NrqSNIW/FMIQ7z9kYTo8MVErPLiYBgpgyMGcgYmEhXiwbFasalxPK9sJxWmVqM2m4+hdbzQGCkU9JtBGFouTrbf9ddf/4adk55uJluSD7FrQ8PFyYfk91/7yiHsl+haAU353TonmKyNZwREgMTs9GNFco9sOBRxiU+fwdXo81ZWiMv8Fy8a/cFowch/PjzeNCau8Go7z0CLlpqubrTPRSGiV4/36oUmQdrZ2flzO148rXBnzpxJTv5cAZBsDPedfdiMv8a6AHTyX5ksimls8tOzoBdLKoDu3aqOyTJhmScGtQVJ5ofT7DSvBtuvEB4c014zgBQrvUNSBbRtM7I9yGcHGp38mgiAbL/Fixe3WPWyidkoWk1BFNrrFuoHmJkn/8fBCfFq/xj0Ow23LYZe74EW496x+uLViU+SkkjBbj/abnyjIQi1BSnLT7UF902Zv25P1C12TOlXYzS+6Z2Ojo7qeoe57EB1gTCKSg1feLUVEp8mPE18egi0tzd6+OG/DmMz/hrB3X1W+6PJgphGQEE/9bmkp4WWgxqggODqGqwt2BuKiUQsqtn2KwSyBY2CtgNqTgHNhUKqIJsapq2F2ZRv2w48q/t6umG6eRrYRic9EUeyGi8YvtZ2EZjXIbqqcaW5FngThp9X+vMhSy9zkKhqoFRjAy3D/UKcmoBdr7++SfS1zJXqHtV5QKqAiKCpqSlrnIB+h95/+higf2M5AShf6gXlj48Z/QDa1w8ODk5LezONPqZlS9pquPaSWWLnEMB/dblFRes8MaAo7iblGbtAfsdfIl4xEA+KWZX6Vh0Kdmp5VunJUahjxDKAHJ3H31EIALRa0/utWrhEjAMd0puqsdswdXugknpmJijt9dUxQQupkQWUVAMpS7o+bb81uQBvvfXWsJ5z/+q+3swqrweff+uIaRJo7FwkhusulPnq8lWIRh/ue3/UFxa312r/fvROsp0DIFKor6/PGy8gJYDqqOwkfvDOQPIHBf+8BWKiqQ12vbmuuPjlrGFLnwFNVhoH9M7pnRLJ01agUNAvc5Kri282J0GTC3Do0KEbtQxaNRtNzdazq8b5PZeafLHKnl+d/ISjoQRsn0h4I+QVB3UUmSTyLKR8cqkBUlzFHhvonYpAJz+932jTHOh3/HrA+tLdmSnHRO5q0E9N9aa/pzlHv0M/RBhqngjNQVIRNPFz2YiaCOCLX/zim3v37t2VbdLTYRSyNuiL0QDMVpfPCqRHRZfXV4vV843HBBovWTrz+hFsUcbnp7Q9F3pRufK/Czkk6bEBWgGKNSPwPw70Q6/XsOASEQS2wPg7b0R8vCps6zOhMUFjXlUFeiZ53u201l/s6+tbrUzyhLqvT/frEft6vciUyKQCAh4DHV79dWLYM3PCvRsR0MzCg1G3+F2ocHARtXqTs1KMaoC2cr85A/zOyvsdqa6Hfsf76ydsfSa0yJKqJgVIq7yZalGGCeC222478fbbb2/W6tdbjcyod50y+dd26U9XCCxcmvP/OxvOXSTCCJ6azN91hgi1UPFOvQdOik0NPHAQbOsuWAS93i01QeiBpUIxALVPRPrqTlsAFAno0kWf+cxn1it7jikZBkq2rcadS1tFmw4LLzCvU4xX5N6bj8RIBWC7zvwymHuC56pxkLlFKFU18NSxc+LwGO4wkK+lVQy7cPaovyIhbvfb072XEoUyx0P6pEeRgO6NUU9Pzz2yDBhiyEzcc5nGgKDLLSJNrQV/7XQ4rvvEWD78bKpKDMRnPnZ6mVo8XTPKS2Y1QNutR945i7sgneJs64R+x68okx/Z3DTXFpDkPk3wzPeUmQ6MIAHdBLB+/fpNx44d65dh0GRLj7xuTp24srlwEYWWhYs0BYbouPhIGBsQpK2AU5BVDTzyzoCYADov/rntIgQM/JHtd0tt0LL7p8WMxjMtArlUXjZ71ywJGHpCx48fXyPDoMlliz2wqsAx3upaMVij3TU4FcbaglReKt0WVHMm9ASFEFsoWdQA2X5PHz+Hu6DXB/X8CVYG/tTj7oXyN3IRgxkSMEQAt99++5t79ux53emBkyvzrb3GK27NExCk1V/3ngysAramVEC+rkZ6tj7FrAa+ubsXer2GrqXQ613jC2s++qsHNGlV+1wLEecbJ0ZJwLBGGhgYWDs6OhoVkoICgtlsweqmFjHo1i/Bz0SxtuDJmEv8KuhLBnv0Am27OqkGyPb70zlgYI1sPy+2rdbX67BJP6TgyM3RW72pULEPIyRgmADuuOOOEz09PVucnui5Vi+yBYkEMgND7vaFxidtEGsLUnJQokr/YLUiw9IpNfDNPdhaDoGFS6DXu90/BbP90lN0EU0/ECRg6lt87nOf+1Jvb++IkwSQzxajvIB0WzAwd15e268QKA1qPIyTgmQLbo8Yq3yDiAM4rQYo3bdvCvc8fbPblPeLI0ey/W6pwTxneqbpJd2MQOu/00MCpmno+PHj9zlJAIXk8AOr5k0HhhD54EdCCagt+HKkRgwm9GcwouIATqkB2k5tPQbs30C23xxsuwqS/mZtPzWLz2yxVr3vWysJmCYAsgWVrcARpwigkBx+f4tfXDunTrR0LBRTAnNKbjCEnXxPhPSnqpqpAqNHDWgpVmEElPGHtP0a53dCbb8l7qjoNnHcV5X7hVSqVhgpOa6FBCBP7NSpU9eq5wScQCF2pHMCemy/QjhN5wSAg/dwzCsOxby6J6ddCovUgNEONdlwaCwotr8L3DlW1150mhOz+hu/XzWLT2+F3rwT1WDMoBAJQAggFRD8nVMEUIgdyRa8swG7ap8NYQ0QIyrAym1AtoGEUgMPgE/7GbF18+FGZeU3YvvROMyVxWcWWtLE8727XNs5mGZas2bNNU7ZglrKYd1aF4GmcdI5geEwzhYcSrjEyxF9jgByVbZLDbx6Zhxq+1U1NhuydXOBAn9f0Znvr2bx0SptVZ8Gs6W/aI5kK0IK9SIOHDjwPScIQIscrlMm/z1N2DPcp0NYW/CFiF9MJip1vVQnYFQNUOAPfdbfM68Ler3P1eo77ac1i8+OMV4I9B0zSQBKAOvWrfs3p23BfLjZHxXLvDiGpurSY0BbcCpRIZ4NB2wdFHaqgaeOn4PafoF5C0zZuplI5vtrtP3UQztas/hkQSYJwLMRjhw5crsTN6Y1ow6tAqh82CRQBrwVrRYn49q9bDvjAGbUAOX7Q20/C8p8aTntp2bx5Tu0YwWQJJNOAnACuO22257bv3//LrsHotaXQR16qFY/EsjkIIIeFaBWZXISWtTAD8Cn/Zo7OsUUuMxXIdvP6iw+J5SAJXfS39+/2m5bUE+fgLsawtCAIJUPm4riAoJkC/4lVqXpd2UajLnUAOX7Q20/f50YqmmCfvevBybzTny18aYTch9ZAiyTBCwZPWQLHjhwYLus7EedetbWYVVAXygGvd6zIW0qILN2vIxq4BFkhV8FlNSFBNl+Sz3RrHIfkcVnFvn6ApqFZcvHZz/72ZvttgX1BKTIFmxzY21BZOEQsgW3h+Wa3EbUwAvKyo+0/ajMF9r2yyzxjc7iQ6zURUcAhH379n3NzgeVrZlGLpAtSFsBJNDlw34drdV0TkDWWn8xbxU26cflFt65HdDvSLZf+nbQiiw+s7CShCwlADonYKctmKuefi6QLXhlFU66U/mw88AiomQLalEBsgalnjkxDA38Bea2Y22/yth0kU8rs/gQaqooCYDQ09Nzo10Pysg5eStsQeQ5AbIFC50TkC0OkIyJTEXEo0ewtt84uMzXNzxnp0tvW5nFZ3rbY2HCl+UEYHf5ML2++HJvHG4LorsKGa0Z4CQePIwN/FF3HyTI9qN8fzM59qUAW7QjlQ+zyxY0kqdOKgBtC45FsLYgKYF8MHJc1CpQ0O+1s0DryoLuPvfWjiRXfT1xI6dg5ZbEFgIgW3Dv3r0/soXRDOyHKSCItgUHQlHsOYFw/nMCMslX9OpvRXefllgwZxdmVgAWgMqHKUrA8q5CuSoFF8KdDWGsLRivgGYIXjgtmNv+crpVm4odfWOiZzwEu54V3X0+X/E3gnKir6WucTQyUhoEQJCpq1A2PNASgl4PXT6MYgFGyofZBQp+PnhI7u4+X66ZEPXui311I5WZbVuhLXZ4bCUAu8qHGfXF6ZwA0hYkDIPLhz0bqpM2DvDoX4ekL/P1adfIjD21LOopG6wOUtpuIPf29q6zOiBoZj+MVgHvgsuHvR3z5bQFnYwDkO33zMlh3AW9PniZr7s8uW1JGQ5VlXQMQAXZglaXDzOzr6NzApQmDN3HwU8LZl+xnKwP8O192EIf6O4+H/PmL/Ml65l+q9WJIylkVncVMts4g+oHIm3Bs9EKaPmwU3F3VlvQioYhWkC235+HgfFdC7r73OkezDvJqRS6jLCamBwhADu6CpmpW0e2ILqI6GmwLfhjRQVkswWtahiSd/XffwZ6PXR3n/XeUUXZFd4eWXXslgkgC6zuKmTW312rbAOw5cOwtuBUjq5CdlcIonz/08AyX/5kmS9sd5/PVmkLjuo9S8IxAJOwsnwYIn8afU7Ajq5CdvraFNz84RFsdx90ma9/8Z4TtUL79svuSst5Sd4GNecoAVD5MKtsQURAjGzBa2uwNsxg0NquQnbGAcjzh5b56rxEBIFDcqUrKG7w6ZvQTsVRsiFbGe+SIgCC012FCqsA7Es4HbW+q5Ad24DD4yHxYt8YkLFrxVAttszXbVX680Go2KfThVZVWF1qXAoCsLKrECLDi2xBeFchi1WAHTIWmvGXWv2R+JR7QqxyGfP2ZTkfYEdehxSVJKzqKoR6gPCuQvEKMRJCnxOohcY/8uG3Zyegth919xny4AJwtRVx8aUq41WSZDkfYEcDWGlKyVjRVUhPpeB8sKKrUF84bllXIasTgqCn/Vxu4ZmHLfK5xjUq5laaW09ksATt6PwkDQEUQ1ch5DkBsvHGQmHo9dL7CVi1j6UqP1DbL1nmCxd4m6NM/FsSZ0z75+ViCUpVTM6K8mHIgpl3gWMBR5X5b1VXISviAJTv//QJbL4/2va72zecDOQh3rsTSVXpsCM9WSoCoHMC6K5CyNNUV/qi4gYfdlAgVQBBVQFWyEfy/KG23/xOqO23yhUSV7unpu/f7OlIO6LwrAAygO4qhJRyVJzhq/WhZHYZCr3RCjFpQVchdByA8v2hth919wHbfndXXaxOzDbudKr7sjrWypIAyBZ86aWXfnD06FHI9VCJHTSQKDpMraOpljwSp4PYcwL5KgcZJoBhrPKh1R+JT3nOi8WVM9WU2WCezMVCEKiQ9Rhkd3c3bQUul/XBvXLrv4upAG4FaxdhMacOU/3Xe/KwaHnmIej9Hl5wuejpeC/kWq76JhFbgDvu6wlPiWu3fkt4QlMyzzU6/LZZsu903C3xA9ug/PxW1i936ZvbxM5P/TPsemeiQjTFE8JbaX7fWd2Db87cMtKPIYBkmS+s7bfkj/8r++S/b8eOHRs5BqADygN7TflD2gajc47uFs1978CuF3V7Rf858xF21+iQqN35Mvx+m0fPJH/Mwt3YLGIeXIJL9fg50bX7NzJP/hOyTn6pCSBNBUiLS9/YBr3egNdv+pxAwy+sq76+suf3JvcmPhFt64J+p1WvbhU8hkuUABTmPE7ySdbvVzf4rph/6A/Qa54xoQJo7+9TfqxCTXBCdPUeMv79Zs3FqhJFgTX39sg8hF9XxvALTADmsEn5kTYUu+LNbckgFAqjVQFxbtKYy9D4iyctv98lJ3cLT9RAQpS/ToSbsQSw8hVe/UueABQGHZH5QVLwiYJQSJwKxXTbgoE3dyj7/0Hr7zcaTpKA06t/1+7fiprxIZmH7hZl7O5iAsCQwGaSU7J+PwpCUTAKhajLIwbGtfvXlQoJ1e58xb777T0o6s5r36q4mmaLMNAyJcW1ZOcvZB6yo8Ww+hcNAaSwUeYvhw5G9Qqv5vJhda/8RFQG7S1ldemRnRpnv1uI1nnYbdcb22S3/TamlCsTAFAFvCYuJFNICQpGIW3BJAkMFw59eM6eEjV73rL/fkfPiDlDpwpL/6ZZIubBpdRaEXgFg2y/TcUyr4pJAagqQNqAIDoodc5TU9AWrHv5J47d74qjfyow+30iPLcTqzze/KnsY3RdMU2ooiKAlC0oLbtSUGrJTmxA8ORI7mOtNXt/b6ntV/B+gxNiyck9uef/nPnQz5tzbE8x2H6vMQFYCyKAE7J+OQoIIm3BoLdaDGSxBSnwF3hjh/P323swqy3oItuvAdfbj57pCnDiVbmv/kVJAMVgC6IHal9wpi1I6b522H4F7zcaVrYCMwOClXM7oJ+zUCFWyW2/76cUKhOADSRA2VXS2oIUpKJgFQpRt0f0p50Pv5Dv/4o893vmyEXnBNwtrSJSHYBdvwjy/SkutbEY51JREkAKcp8TAAer+l0107YgJf3YbfsVwtITqeQgl1skZrVjr/3HX8hu+20oFtuvZAgglWUltS2ItqtOnhtN5vs7YfsVvF9FAdA5AZ+y+iNtPwr8SW777U4lqhUl3KK4QSpgtfJTL+OXW/nq1uTgHWxfjHlZsaho2v+GtC+DYgFVtbUienIv5Ho1Y0OyT37plWghSFsRSCu6u7tp73WvYDDsx3Zl9V9dzDdQWexvIFVs4QSPRQav/mVIACms47HIsBn3FaPtV5IEkMq+ep3HJMMmkOLcVAo3UllCL4VVAMMubCxW269kCSAlx77PY5NhMV4vZtuvlBVAkpmFxKcFGSUzxgQTgJwqYKTUXhBDKmwpttN+5aYARKoYw24eqwwwijbfv6wIIIUNPF4ZYGwqBdsvE0WfCZgL3d3ddGLwJh63DACozFdnKd5YZQm/NFYBDB5L5UoAsncVYhQNpO/uwwSQZ98m2BZk8OpfngQge/kwhvT4fjF092ECyE8CmwWfE2DoR0nafmVHACls5PHM0DtmSiXfPx9K1gbMRHd3NymBtTyuGRpQsrZfuSoAVQVwQJChBevK5UbLhgBk7yrEkAavl1q+PxPA3yB1VyEGr/5MANaqALYFGflwXynm+zMBXEwCUncVYjiG0XLcIlaW6ctmFcCYMSbKwfbLRNnYgJlgW5CRBurus7Icb7yyjF/6BsG2IKPMFWHZEgCXD2OksL2cbD8mgItJgG3B8saoKPN4UCWPAe4nUMbYVG62HxPATBVA8o9twfJDyXT3YQJgFcDQj43laPsxAWRXASQDuatQ+aCkuvswAYBWBMG2YDm9awYTwEUqgOTgNRwPKPl9/83lbPtlomwzARkMBhMAg8EEwGAwmAAYDAYTAIPBYAJgMBhMAAwGgwmAwWAwATAYDCYABoPBBMBgMJgAGAwGEwCDwWACYDAYTAAMBoMJgMFgMAEwGAwmAAaDwQTAYDCYABgMBhMAg8FgAmAwGEwADAaDCYDBYNiA/xdgAI48f6T4c9ZhAAAAAElFTkSuQmCC;" parent="UesbSPqziF9T87_pEKpf-7" vertex="1">
          <mxGeometry x="27.5" y="22.5" width="55" height="55" as="geometry" />
        </mxCell>
        <mxCell id="UesbSPqziF9T87_pEKpf-10" value="Firebase" style="ellipse;shape=cloud;whiteSpace=wrap;html=1;" parent="1" vertex="1">
          <mxGeometry x="-390" y="350" width="120" height="80" as="geometry" />
        </mxCell>
        <mxCell id="UesbSPqziF9T87_pEKpf-11" style="edgeStyle=orthogonalEdgeStyle;rounded=0;orthogonalLoop=1;jettySize=auto;html=1;entryX=0;entryY=0.5;entryDx=0;entryDy=0;" parent="1" source="UesbSPqziF9T87_pEKpf-12" target="UesbSPqziF9T87_pEKpf-16" edge="1">
          <mxGeometry relative="1" as="geometry">
            <mxPoint x="-330" y="280" as="targetPoint" />
          </mxGeometry>
        </mxCell>
        <mxCell id="UesbSPqziF9T87_pEKpf-12" value="ICB" style="label;whiteSpace=wrap;html=1;align=center;verticalAlign=bottom;spacingLeft=0;spacingBottom=4;imageAlign=center;imageVerticalAlign=top;image=img/clipart/Gear_128x128.png" parent="1" vertex="1">
          <mxGeometry x="-510" y="210" width="120" height="80" as="geometry" />
        </mxCell>
        <mxCell id="UesbSPqziF9T87_pEKpf-13" value="" style="group" parent="1" vertex="1" connectable="0">
          <mxGeometry x="-60" y="197.5" width="220" height="115" as="geometry" />
        </mxCell>
        <mxCell id="UesbSPqziF9T87_pEKpf-14" value="&lt;b&gt;DSWFD Backend&lt;/b&gt;" style="rounded=1;whiteSpace=wrap;html=1;" parent="UesbSPqziF9T87_pEKpf-13" vertex="1">
          <mxGeometry width="220" height="100" as="geometry" />
        </mxCell>
        <mxCell id="UesbSPqziF9T87_pEKpf-15" value="" style="shape=image;verticalLabelPosition=bottom;labelBackgroundColor=default;verticalAlign=top;aspect=fixed;imageAspect=0;image=https://spring.io/img/spring.svg;" parent="UesbSPqziF9T87_pEKpf-13" vertex="1">
          <mxGeometry x="29.995714285714286" y="9" width="31.428571428571427" height="31.428571428571427" as="geometry" />
        </mxCell>
        <mxCell id="UesbSPqziF9T87_pEKpf-16" value="SOAP" style="rounded=0;whiteSpace=wrap;html=1;" parent="UesbSPqziF9T87_pEKpf-13" vertex="1">
          <mxGeometry x="-15.714285714285714" y="25" width="31.428571428571427" height="55" as="geometry" />
        </mxCell>
        <mxCell id="UesbSPqziF9T87_pEKpf-17" value="REST" style="rounded=0;whiteSpace=wrap;html=1;" parent="UesbSPqziF9T87_pEKpf-13" vertex="1">
          <mxGeometry x="90" y="85" width="59.29" height="30" as="geometry" />
        </mxCell>
        <mxCell id="UesbSPqziF9T87_pEKpf-18" style="edgeStyle=orthogonalEdgeStyle;rounded=0;orthogonalLoop=1;jettySize=auto;html=1;exitX=0.5;exitY=0;exitDx=0;exitDy=0;entryX=0.25;entryY=1;entryDx=0;entryDy=0;" parent="1" source="UesbSPqziF9T87_pEKpf-21" target="UesbSPqziF9T87_pEKpf-17" edge="1">
          <mxGeometry relative="1" as="geometry" />
        </mxCell>
        <mxCell id="UesbSPqziF9T87_pEKpf-19" style="edgeStyle=orthogonalEdgeStyle;rounded=0;orthogonalLoop=1;jettySize=auto;html=1;exitX=0.5;exitY=1;exitDx=0;exitDy=0;entryX=0.5;entryY=1;entryDx=0;entryDy=0;" parent="1" source="UesbSPqziF9T87_pEKpf-21" target="UesbSPqziF9T87_pEKpf-8" edge="1">
          <mxGeometry relative="1" as="geometry">
            <Array as="points">
              <mxPoint x="-10" y="480" />
              <mxPoint x="345" y="480" />
            </Array>
          </mxGeometry>
        </mxCell>
        <mxCell id="UesbSPqziF9T87_pEKpf-20" value="authenticates" style="edgeLabel;html=1;align=center;verticalAlign=middle;resizable=0;points=[];" parent="UesbSPqziF9T87_pEKpf-19" vertex="1" connectable="0">
          <mxGeometry x="0.6504" y="-1" relative="1" as="geometry">
            <mxPoint as="offset" />
          </mxGeometry>
        </mxCell>
        <mxCell id="UesbSPqziF9T87_pEKpf-23" value="" style="shape=image;verticalLabelPosition=bottom;labelBackgroundColor=default;verticalAlign=top;aspect=fixed;imageAspect=0;image=data:image/svg+xml,PHN2ZyB4bWxucz0iaHR0cDovL3d3dy53My5vcmcvMjAwMC9zdmciIHZpZXdCb3g9IjAgMCAxMjc0LjM3IDcxOCIgZGF0YS1uYW1lPSJMYXllciAxIiBpZD0iTGF5ZXJfMSI+PGRlZnM+PHN0eWxlPi5jbHMtMXtmaWxsOiMzZGRjODQ7fTwvc3R5bGU+PC9kZWZzPjx0aXRsZT5BbmRyb2lkIHJvYm90PC90aXRsZT48cGF0aCBkPSJNOTMwLjc3LDUzNi40MmE1My4wNyw1My4wNywwLDEsMSw1My4wNi01My4wOCw1My4xNCw1My4xNCwwLDAsMS01My4wNiw1My4wOG0tNTg2LjU0LDBhNTMuMDcsNTMuMDcsMCwxLDEsNTMuMDYtNTMuMDgsNTMuMTMsNTMuMTMsMCwwLDEtNTMuMDYsNTMuMDhNOTQ5LjgsMjE2Ljc3LDEwNTUuODUsMzMuMDlBMjIuMDYsMjIuMDYsMCwxLDAsMTAxNy42NCwxMUw5MTAuMjUsMTk3Yy04Mi4xMi0zNy40OC0xNzQuMzUtNTguMzUtMjcyLjc2LTU4LjM1UzQ0Ni44NiwxNTkuNTUsMzY0Ljc0LDE5N0wyNTcuMzYsMTFhMjIuMDYsMjIuMDYsMCwxLDAtMzguMjIsMjIuMDZMMzI1LjIsMjE2Ljc3QzE0My4wOSwzMTUuODIsMTguNTMsNTAwLjE4LjMxLDcxOEgxMjc0LjY5Yy0xOC4yNC0yMTcuODItMTQyLjc5LTQwMi4xOC0zMjQuODktNTAxLjIzIiBjbGFzcz0iY2xzLTEiLz48L3N2Zz4=;" parent="1" vertex="1">
          <mxGeometry x="110" y="422" width="46.16" height="26" as="geometry" />
        </mxCell>
        <mxCell id="UesbSPqziF9T87_pEKpf-24" style="edgeStyle=orthogonalEdgeStyle;rounded=0;orthogonalLoop=1;jettySize=auto;html=1;entryX=0.5;entryY=1;entryDx=0;entryDy=0;entryPerimeter=0;" parent="1" source="UesbSPqziF9T87_pEKpf-14" target="UesbSPqziF9T87_pEKpf-6" edge="1">
          <mxGeometry relative="1" as="geometry" />
        </mxCell>
        <mxCell id="UesbSPqziF9T87_pEKpf-25" style="edgeStyle=orthogonalEdgeStyle;rounded=0;orthogonalLoop=1;jettySize=auto;html=1;exitX=1;exitY=0.5;exitDx=0;exitDy=0;entryX=0;entryY=0.5;entryDx=0;entryDy=0;" parent="1" source="UesbSPqziF9T87_pEKpf-14" target="UesbSPqziF9T87_pEKpf-8" edge="1">
          <mxGeometry relative="1" as="geometry" />
        </mxCell>
        <mxCell id="UesbSPqziF9T87_pEKpf-26" value="verifies auth" style="edgeLabel;html=1;align=center;verticalAlign=middle;resizable=0;points=[];" parent="UesbSPqziF9T87_pEKpf-25" vertex="1" connectable="0">
          <mxGeometry x="-0.1897" y="1" relative="1" as="geometry">
            <mxPoint as="offset" />
          </mxGeometry>
        </mxCell>
      </root>
    </mxGraphModel>
  </diagram>
  <diagram id="MIiwF0mn4fUds0LLJXiy" name="fullstack">
    <mxGraphModel dx="2668" dy="1148" grid="1" gridSize="10" guides="1" tooltips="1" connect="1" arrows="1" fold="1" page="1" pageScale="1" pageWidth="850" pageHeight="1100" math="0" shadow="0">
      <root>
        <mxCell id="0" />
        <mxCell id="1" parent="0" />
        <mxCell id="aG5FAwKS7XLNoopdOrm6-1" value="" style="group;dashed=1;strokeColor=none;rounded=0;dashPattern=12 12;" parent="1" vertex="1" connectable="0">
          <mxGeometry x="-240" y="40" width="770" height="460" as="geometry" />
        </mxCell>
        <mxCell id="aG5FAwKS7XLNoopdOrm6-2" value="" style="rounded=0;whiteSpace=wrap;html=1;" parent="aG5FAwKS7XLNoopdOrm6-1" vertex="1">
          <mxGeometry width="770" height="460" as="geometry" />
        </mxCell>
        <mxCell id="aG5FAwKS7XLNoopdOrm6-3" value="BwFPS" style="text;html=1;align=center;verticalAlign=middle;resizable=0;points=[];autosize=1;strokeColor=none;fillColor=none;" parent="aG5FAwKS7XLNoopdOrm6-1" vertex="1">
          <mxGeometry width="60" height="30" as="geometry" />
        </mxCell>
        <mxCell id="aG5FAwKS7XLNoopdOrm6-4" value="" style="group" parent="aG5FAwKS7XLNoopdOrm6-1" vertex="1" connectable="0">
          <mxGeometry x="110" y="360" width="180" height="70" as="geometry" />
        </mxCell>
        <mxCell id="aG5FAwKS7XLNoopdOrm6-5" value="DSWFD Frontend" style="rounded=1;whiteSpace=wrap;html=1;align=right;spacingRight=19;" parent="aG5FAwKS7XLNoopdOrm6-4" vertex="1">
          <mxGeometry width="180" height="70" as="geometry" />
        </mxCell>
        <mxCell id="aG5FAwKS7XLNoopdOrm6-6" value="" style="shape=image;verticalLabelPosition=bottom;labelBackgroundColor=default;verticalAlign=top;aspect=fixed;imageAspect=0;image=data:image/svg+xml,PHN2ZyB4bWxuczp4bGluaz0iaHR0cDovL3d3dy53My5vcmcvMTk5OS94bGluayIgeG1sbnM9Imh0dHA6Ly93d3cudzMub3JnLzIwMDAvc3ZnIiB2aWV3Qm94PSIwIDAgMzU4LjQ2NCAyMzUuOTUyIj4mI3hhOwk8ZGVmcz4mI3hhOwkJPHN0eWxlPi5he2ZpbGw6I2ZmM2UwMDt9LmJ7ZmlsbDojZmZmO30uY3tmaWxsOiMxMjczZmY7fS5ke2ZpbGw6I2ZmZDgxNTt9PC9zdHlsZT4mI3hhOwkJPHN5bWJvbCB2aWV3Qm94PSIwIDAgOTMuMjI0IDExMiIgaWQ9ImEiPiYjeGE7CQkJPHBhdGggZD0iTTg3LjI2OSwxNC44MTlDNzYuODY5LS4wNjYsNTYuMzI4LTQuNDc4LDQxLjQ3Nyw0Ljk4NEwxNS40LDIxLjYwOEEyOS45MjEsMjkuOTIxLDAsMCwwLDEuODc2LDQxLjY1MSwzMS41MTQsMzEuNTE0LDAsMCwwLDQuOTg0LDYxLjg4MiwzMC4wMDYsMzAuMDA2LDAsMCwwLC41MDcsNzMuMDY1LDMxLjg5MiwzMS44OTIsMCwwLDAsNS45NTUsOTcuMTgxYzEwLjQsMTQuODg3LDMwLjk0MiwxOS4zLDQ1Ljc5MSw5LjgzNUw3Ny44MjksOTAuMzkyQTI5LjkxNSwyOS45MTUsMCwwLDAsOTEuMzQ3LDcwLjM0OWEzMS41MjIsMzEuNTIyLDAsMCwwLTMuMS0yMC4yMzIsMzAuMDE5LDMwLjAxOSwwLDAsMCw0LjQ3NC0xMS4xODIsMzEuODc4LDMxLjg3OCwwLDAsMC01LjQ0Ny0yNC4xMTYiIGNsYXNzPSJhIi8+JiN4YTsJCQk8cGF0aCBkPSJNMzguOTI5LDk4LjU4MmEyMC43MiwyMC43MiwwLDAsMS0yMi4yMzctOC4yNDMsMTkuMTc2LDE5LjE3NiwwLDAsMS0zLjI3Ni0xNC41LDE4LjE0MywxOC4xNDMsMCwwLDEsLjYyMy0yLjQzNWwuNDkxLTEuNSwxLjMzNy45ODFhMzMuNjMzLDMzLjYzMywwLDAsMCwxMC4yLDUuMWwuOTY5LjI5NC0uMDg5Ljk2OEE1Ljg0NCw1Ljg0NCwwLDAsMCwyOCw4My4xMjJhNi4yNCw2LjI0LDAsMCwwLDYuNywyLjQ4NSw1Ljc0OCw1Ljc0OCwwLDAsMCwxLjYtLjdMNjIuMzgyLDY4LjI4MWE1LjQzLDUuNDMsMCwwLDAsMi40NTEtMy42MzEsNS43OTQsNS43OTQsMCwwLDAtLjk4OC00LjM3MSw2LjI0NCw2LjI0NCwwLDAsMC02LjctMi40ODcsNS43NTUsNS43NTUsMCwwLDAtMS42LjdsLTkuOTUzLDYuMzQ1YTE5LjA2LDE5LjA2LDAsMCwxLTUuMywyLjMyNiwyMC43MTksMjAuNzE5LDAsMCwxLTIyLjIzNy04LjI0MywxOS4xNzEsMTkuMTcxLDAsMCwxLTMuMjc3LTE0LjVBMTcuOTkyLDE3Ljk5MiwwLDAsMSwyMi45MTUsMzIuMzdMNDksMTUuNzQ3YTE5LjAzLDE5LjAzLDAsMCwxLDUuMy0yLjMyOSwyMC43MiwyMC43MiwwLDAsMSwyMi4yMzcsOC4yNDMsMTkuMTc2LDE5LjE3NiwwLDAsMSwzLjI3NywxNC41LDE4LjQ1MywxOC40NTMsMCwwLDEtLjYyNCwyLjQzNWwtLjQ5MSwxLjUtMS4zMzYtLjk3OWEzMy42MTYsMzMuNjE2LDAsMCwwLTEwLjItNS4xbC0uOTctLjI5NC4wOS0uOTY4YTUuODU5LDUuODU5LDAsMCwwLTEuMDUyLTMuODc4LDYuMjQxLDYuMjQxLDAsMCwwLTYuNy0yLjQ4NSw1Ljc0OCw1Ljc0OCwwLDAsMC0xLjYuN0wzMC44NDIsNDMuNzE5YTUuNDIxLDUuNDIxLDAsMCwwLTIuNDQ5LDMuNjMsNS43OSw1Ljc5LDAsMCwwLC45ODYsNC4zNzIsNi4yNDUsNi4yNDUsMCwwLDAsNi43LDIuNDg3LDUuNzczLDUuNzczLDAsMCwwLDEuNi0uN2w5Ljk1Mi02LjM0MmExOC45NzgsMTguOTc4LDAsMCwxLDUuMy0yLjMyOCwyMC43MTgsMjAuNzE4LDAsMCwxLDIyLjIzNiw4LjI0MywxOS4xNzEsMTkuMTcxLDAsMCwxLDMuMjc3LDE0LjUsMTgsMTgsMCwwLDEtOC4xMywxMi4wNTRMNDQuMjI5LDk2LjI1M2ExOS4wMTcsMTkuMDE3LDAsMCwxLTUuMywyLjMyOSIgY2xhc3M9ImIiLz4mI3hhOwkJPC9zeW1ib2w+JiN4YTsJPC9kZWZzPiYjeGE7CTx1c2UgeGxpbms6aHJlZj0iI2EiIHRyYW5zZm9ybT0idHJhbnNsYXRlKDM0LjIyOCAyOS4yNjcpIHNjYWxlKDEuNTg0KSIgaGVpZ2h0PSIxMTIiIHdpZHRoPSI5My4yMjQiLz4mI3hhOzwvc3ZnPg==;clipPath=inset(2.28% 41% 5.84% 2.33%);" parent="aG5FAwKS7XLNoopdOrm6-4" vertex="1">
          <mxGeometry x="10" y="7" width="52.6" height="56" as="geometry" />
        </mxCell>
        <mxCell id="vSt-ulIdHb00yMuj97X6-1" value="" style="group" parent="1" vertex="1" connectable="0">
          <mxGeometry x="-130" y="400" width="180" height="70" as="geometry" />
        </mxCell>
        <mxCell id="vSt-ulIdHb00yMuj97X6-2" value="DSWFD Frontend" style="rounded=1;whiteSpace=wrap;html=1;align=right;spacingRight=19;" parent="vSt-ulIdHb00yMuj97X6-1" vertex="1">
          <mxGeometry width="180" height="70" as="geometry" />
        </mxCell>
        <mxCell id="vSt-ulIdHb00yMuj97X6-25" value="" style="shape=image;verticalLabelPosition=bottom;labelBackgroundColor=default;verticalAlign=top;aspect=fixed;imageAspect=0;image=data:image/svg+xml,PHN2ZyB4bWxuczp4bGluaz0iaHR0cDovL3d3dy53My5vcmcvMTk5OS94bGluayIgeG1sbnM9Imh0dHA6Ly93d3cudzMub3JnLzIwMDAvc3ZnIiB2aWV3Qm94PSIwIDAgMzU4LjQ2NCAyMzUuOTUyIj4mI3hhOwk8ZGVmcz4mI3hhOwkJPHN0eWxlPi5he2ZpbGw6I2ZmM2UwMDt9LmJ7ZmlsbDojZmZmO30uY3tmaWxsOiMxMjczZmY7fS5ke2ZpbGw6I2ZmZDgxNTt9PC9zdHlsZT4mI3hhOwkJPHN5bWJvbCB2aWV3Qm94PSIwIDAgOTMuMjI0IDExMiIgaWQ9ImEiPiYjeGE7CQkJPHBhdGggZD0iTTg3LjI2OSwxNC44MTlDNzYuODY5LS4wNjYsNTYuMzI4LTQuNDc4LDQxLjQ3Nyw0Ljk4NEwxNS40LDIxLjYwOEEyOS45MjEsMjkuOTIxLDAsMCwwLDEuODc2LDQxLjY1MSwzMS41MTQsMzEuNTE0LDAsMCwwLDQuOTg0LDYxLjg4MiwzMC4wMDYsMzAuMDA2LDAsMCwwLC41MDcsNzMuMDY1LDMxLjg5MiwzMS44OTIsMCwwLDAsNS45NTUsOTcuMTgxYzEwLjQsMTQuODg3LDMwLjk0MiwxOS4zLDQ1Ljc5MSw5LjgzNUw3Ny44MjksOTAuMzkyQTI5LjkxNSwyOS45MTUsMCwwLDAsOTEuMzQ3LDcwLjM0OWEzMS41MjIsMzEuNTIyLDAsMCwwLTMuMS0yMC4yMzIsMzAuMDE5LDMwLjAxOSwwLDAsMCw0LjQ3NC0xMS4xODIsMzEuODc4LDMxLjg3OCwwLDAsMC01LjQ0Ny0yNC4xMTYiIGNsYXNzPSJhIi8+JiN4YTsJCQk8cGF0aCBkPSJNMzguOTI5LDk4LjU4MmEyMC43MiwyMC43MiwwLDAsMS0yMi4yMzctOC4yNDMsMTkuMTc2LDE5LjE3NiwwLDAsMS0zLjI3Ni0xNC41LDE4LjE0MywxOC4xNDMsMCwwLDEsLjYyMy0yLjQzNWwuNDkxLTEuNSwxLjMzNy45ODFhMzMuNjMzLDMzLjYzMywwLDAsMCwxMC4yLDUuMWwuOTY5LjI5NC0uMDg5Ljk2OEE1Ljg0NCw1Ljg0NCwwLDAsMCwyOCw4My4xMjJhNi4yNCw2LjI0LDAsMCwwLDYuNywyLjQ4NSw1Ljc0OCw1Ljc0OCwwLDAsMCwxLjYtLjdMNjIuMzgyLDY4LjI4MWE1LjQzLDUuNDMsMCwwLDAsMi40NTEtMy42MzEsNS43OTQsNS43OTQsMCwwLDAtLjk4OC00LjM3MSw2LjI0NCw2LjI0NCwwLDAsMC02LjctMi40ODcsNS43NTUsNS43NTUsMCwwLDAtMS42LjdsLTkuOTUzLDYuMzQ1YTE5LjA2LDE5LjA2LDAsMCwxLTUuMywyLjMyNiwyMC43MTksMjAuNzE5LDAsMCwxLTIyLjIzNy04LjI0MywxOS4xNzEsMTkuMTcxLDAsMCwxLTMuMjc3LTE0LjVBMTcuOTkyLDE3Ljk5MiwwLDAsMSwyMi45MTUsMzIuMzdMNDksMTUuNzQ3YTE5LjAzLDE5LjAzLDAsMCwxLDUuMy0yLjMyOSwyMC43MiwyMC43MiwwLDAsMSwyMi4yMzcsOC4yNDMsMTkuMTc2LDE5LjE3NiwwLDAsMSwzLjI3NywxNC41LDE4LjQ1MywxOC40NTMsMCwwLDEtLjYyNCwyLjQzNWwtLjQ5MSwxLjUtMS4zMzYtLjk3OWEzMy42MTYsMzMuNjE2LDAsMCwwLTEwLjItNS4xbC0uOTctLjI5NC4wOS0uOTY4YTUuODU5LDUuODU5LDAsMCwwLTEuMDUyLTMuODc4LDYuMjQxLDYuMjQxLDAsMCwwLTYuNy0yLjQ4NSw1Ljc0OCw1Ljc0OCwwLDAsMC0xLjYuN0wzMC44NDIsNDMuNzE5YTUuNDIxLDUuNDIxLDAsMCwwLTIuNDQ5LDMuNjMsNS43OSw1Ljc5LDAsMCwwLC45ODYsNC4zNzIsNi4yNDUsNi4yNDUsMCwwLDAsNi43LDIuNDg3LDUuNzczLDUuNzczLDAsMCwwLDEuNi0uN2w5Ljk1Mi02LjM0MmExOC45NzgsMTguOTc4LDAsMCwxLDUuMy0yLjMyOCwyMC43MTgsMjAuNzE4LDAsMCwxLDIyLjIzNiw4LjI0MywxOS4xNzEsMTkuMTcxLDAsMCwxLDMuMjc3LDE0LjUsMTgsMTgsMCwwLDEtOC4xMywxMi4wNTRMNDQuMjI5LDk2LjI1M2ExOS4wMTcsMTkuMDE3LDAsMCwxLTUuMywyLjMyOSIgY2xhc3M9ImIiLz4mI3hhOwkJPC9zeW1ib2w+JiN4YTsJPC9kZWZzPiYjeGE7CTx1c2UgeGxpbms6aHJlZj0iI2EiIHRyYW5zZm9ybT0idHJhbnNsYXRlKDM0LjIyOCAyOS4yNjcpIHNjYWxlKDEuNTg0KSIgaGVpZ2h0PSIxMTIiIHdpZHRoPSI5My4yMjQiLz4mI3hhOzwvc3ZnPg==;clipPath=inset(2.28% 41% 5.84% 2.33%);" parent="vSt-ulIdHb00yMuj97X6-1" vertex="1">
          <mxGeometry x="10" y="7" width="52.6" height="56" as="geometry" />
        </mxCell>
        <mxCell id="vSt-ulIdHb00yMuj97X6-4" style="edgeStyle=orthogonalEdgeStyle;rounded=0;orthogonalLoop=1;jettySize=auto;html=1;exitX=0.5;exitY=0;exitDx=0;exitDy=0;entryX=0.75;entryY=1;entryDx=0;entryDy=0;" parent="1" source="vSt-ulIdHb00yMuj97X6-5" target="vSt-ulIdHb00yMuj97X6-17" edge="1">
          <mxGeometry relative="1" as="geometry" />
        </mxCell>
        <mxCell id="vSt-ulIdHb00yMuj97X6-5" value="DSWFD Frontend" style="rounded=1;whiteSpace=wrap;html=1;align=right;spacingRight=15;" parent="1" vertex="1">
          <mxGeometry x="89.28999999999999" y="400" width="190" height="70" as="geometry" />
        </mxCell>
        <mxCell id="vSt-ulIdHb00yMuj97X6-6" value="MSSQL" style="shape=cylinder3;whiteSpace=wrap;html=1;boundedLbl=1;backgroundOutline=1;size=15;" parent="1" vertex="1">
          <mxGeometry x="-60.709999999999994" y="80" width="60" height="80" as="geometry" />
        </mxCell>
        <mxCell id="vSt-ulIdHb00yMuj97X6-7" value="" style="group" parent="1" vertex="1" connectable="0">
          <mxGeometry x="270" y="217.5" width="110" height="100" as="geometry" />
        </mxCell>
        <mxCell id="vSt-ulIdHb00yMuj97X6-8" value="Keycloak" style="rounded=1;whiteSpace=wrap;html=1;verticalAlign=bottom;" parent="vSt-ulIdHb00yMuj97X6-7" vertex="1">
          <mxGeometry width="110" height="100" as="geometry" />
        </mxCell>
        <mxCell id="vSt-ulIdHb00yMuj97X6-9" value="" style="shape=image;verticalLabelPosition=bottom;labelBackgroundColor=default;verticalAlign=top;aspect=fixed;imageAspect=0;image=data:image/png,iVBORw0KGgoAAAANSUhEUgAAAQAAAAEACAYAAABccqhmAAAACXBIWXMAAAsTAAALEwEAmpwYAAAAGXRFWHRTb2Z0d2FyZQBBZG9iZSBJbWFnZVJlYWR5ccllPAAAKJdJREFUeNrsXXuQXFWZPzP9mkf3vJNJZpLJZMjTgCQu+EREAavchSHUmnItlMQoLiIs+UfXRS1CsaUsWFTcXZRaQJIAIhVREtxSBBQELNeo5P0YzJuZTDIzmWdm+t17v07fsdPTj/v43XtPd3+/qqlInNzue+85v/M73+8731eRSCQEg8EoT1QwATAYTAAMBoMJgMFgMAEwGAwmAAaDwQTAYDCYABgMBhMAg8FgAmAwGEwADAaDCYDBYDABMBgMJgAGg8EEwGAwmAAYDAYTAIPBYAJgMBhMAAwGgwmAwWAwATAYDCYABoPBBMBgMJgAGAwGE4CN6O7uXqn8sUn5+Rg/jZLECeVnw44dO17gR8EEkDn5G5Q/jis/9fw0Sh6rFBLYxY9BiEp+BNPYwJO/bLCJHwErgPTVv1P54xgPh7LCFxQVsJkVAIOwmR9B2WFjatvHBFDmq/81goN+5YgFqW0fEwCv/owyxYbU9o8JoExX/w2plYBRnqCg78ZyfgBlGwRk24+Rho/v2LHjNVYA5YVNPPkZaWOBFUAZrf6U8fc2j3tGGsrSFixXBcCJIIwZY6IcbcGyIwDlJa8WbPsxZoK2gxuYAHj1Z5Qv7i03W7CsCEB5uRsF234MXiCmUTZBwBSz7xIc+WcURtnYguWkADby5GdoxGbeApTW6n+N8sdaHtcMjViQyhJlAiih1Z/B0DVmysEWLHkCUF7iOsG2H0M/yuKcQEkHAVMMToE/jvwzjGLhjh07jrMCKE7waT+GWWxmBVCcq3+n4DJfDAxuLtVKwqWsADjjj8FjqRwJIGX73cTjlgHCglQWKRMAMzajTLGhFG3BkiOAlO13OY9XBhj1pbiwlFQQkMt8MWxASXUVKjUFsJEnP4O3l2WoANj2Y9iIkikfVkoKYDOPS4ZdSrNUAoIlQQDc3YdhM0qmq1CpKABe/Rl2oyS6ChU9AXB3H4ZDKInTgkUdBCwG22+yyi9OtV4CuVZtaELM6z8i9TuZXPReEZuLWRi9Jw4L38nDsg/Doi4f5i5yApO6u8/hBZeLno73wq7nFQkxuOIjYuWrW6W83/1XrRG+VR8WNf4A5oJXKaS38xVR/8pPZB6DpAKu4S2A/as/dfeRtszXWG0TdPITwl2XilPLPiiG2pfIt/IHmsXRyz8ujogq6HXPX3mdCHUslXkofiyVfcoE4MDqLy32XXIF9Ho+n08If13yf7997a3S3e+u6y58p3A8IQbGJ6DXHrlhvfRjsVhtwaIkANm7+/Q3zxdD9a2w67niMRFauGL6v6cCTcpq+wlp7pcUyVDb4un/7lU2KyIagV0/Vt+sKIHrZR6SRdtVqFgVgOSr/5XQ61U0zRbC67vo73re/w8i4quW4n4zFUksIcSpYBT6GeMf7RbxqhqZX3tRdhUqOgKQvbsPBf6mfLWw63kScRFt75rx9xFvtei58gbn71chIlIkmTgbd4nY+XHY58QVshu77p94YSpnAkgxrLRSK+L2imNty6HXjLcpt+zKbtZQ0I2Cb47drzIpj+XZihypwCqUycs+LCKt82UeojelslKZACzCRiGx7be/6wqFBDyw6/kqFDk9qz3v76jBN0fu96o1SSWSU7ZH42JidAT6maOsAsqTAGTv7kNBP1TCj4rQosI2IgXf+rvsr38y1jIvaUkWwjGXsh2KhGGfG+5YKoJLVsk8VC8vpq5CxaQANsr85Wjvj0TS9qvWFkvYp6zEdmPfR7V9ZtIWDIahn10EKqBoTgsWBQHI3t2HVn6o7ZeIa1r9VVAQjoJxdoEUR7rtVwhkC8aDk7DPJ1uQXAGJUTTnBCqLYPI3yLyvosAfevWvaJyVM/CXU2pf/glbbEH6DL2Kg2zBk1gRkMwLiNW3yDx07y4GW7AYFMAGIXHg72j7crzt16E/1ZeCcftt2ApQAlI2269grEK4RWR8FPY9yBaUXAUQNjMBmFv9iUHvlfX70Uk/dL5/fJ7xQCIF5Sg4Z9n9Bprz2n6F8NdKbCIP2YJFcE7gGiYA45DaUiHbDwmvyyVizXNMXUNrcM4IktmHXuPbjEllL4C2BVkFlCgByN7dh4J+lPOPRHix+ViCVbYg5ftrsf00qQCwLTj53o/IPMek7iokswIoq3x/b21gRr6/mX06GoPtiyHXoYAg2hYcv6oozglsltEalLIi0MMPP/zfK1eu/OrixYul+D7nz5+/4Mun8NPjg+LrfzoOu36V2yWCS9+nO/KfCx+oTohn52MP43x/yKX84NaLj9R7RDBRAbvemtqwWOO/QCwjIyPC7XaL6upqYeX4npycFF6vV59iCYeT340VQA489thjC2688cY7ZJn8NIDSJ/9YJCbu330K+xmU3+7CDYrr/XH4c1juw06kPedj0OttO+8V/eGEiEajwu/3i6qqKukmv/rveAuQBx0dHS8qL69Clu8zNjZ28Up4oE+MR3CDN1DlE6HmubDrtXsSYn0jngA+qZAKKQuYbI/GhVtgv+eW81W2jAmjk59QW1vLBJALTz755FXt7e2XyfJ9QqHQRS/s3fMh8eQ7Z7D717ZF0Os91Bqz7Hk8NAd77bcnsNf7c9gjDkTc0k5+gsfjYQLIhWXLlr2YLredlv6x2MUD9GvAfT+hsbFxuswXau//wRrrZO88RV18Aagu6JxANIYlgacmq6Wd/CoopsQEkIHHH3/8W4r8b6ipkSOaOz4+ftHL/sPAuPi/gXHoZwy3LpR6hc6Gu5tjIgAcNfsmY8JTgSOtE1GX+GUQv4hMTExAJn9y0lVWMgFk4kMf+tB0xl9FhbMhAJL+mUT0tZ3YvqOBufNgth+BVmZaoa1GXeUFEkCBbMG+IDYW8PxklZgEOgyRSCTpKKAgUxxACgJ48cUXX2toaJjevJFV4iTi8YsH5I+UfX/vJO47+dwuMd6EC/wFwJOyECjIiHQFToZiogqoAmjy/3SyCjb5acVGOwrkVjABXJD+C97znvdcnbnXcgoU9U8P1JDtR5F/JCraFkJtv2/PjiVXZjvx7VlYwkHbgr9StgED8UopJ7/TY1wqAujs7Hw10/bLXIHtAr3oTOl//66TUNuvyV8jgg2zYNejlfjTdfY/Lwo2IvMNyBasAL/3RydqpJz8Mm0DHCWALVu2fGb58uUzjr8FAgFHvg8FetJxYGRSPH9iCPoZ52ZjA3/olVjfZ2Mn7J5J7L0cjLgN2YJWT36CLHagowSwZMmSR7P9PSraqlf6ZwZ60Bl/LS2zoLYfrcBW2n6FQEHHu5uxtuBEBEsCelWAHZNfhQx2oGMEoKz+/0m2X859so1OQDbp/+u+EajtV+12icEW3OlBCvyhV2Aj+EIj1hb8azAmfAI3+QbjlUlXQLbJn5x8EtiBjnwDCvxdccUVX5ElSJKZ7pvM91f2/ki4Z82F2n7rbbL9CoGCjxSERIFswRMhrAqgvIBCtqDdk1+WOIAjBNDa2rol3fbLBvLi7QDJsMwX8STY9qN8f6Tt157MyIsJWUBBSOQ5gd5QXFEBOHVDk3/r+WqpJr8Kp+1A2wmA8v0zbb9cstwO6Z+Zekz5/j8C5/tH53ZCbT/ad9dJdowLnYewdxK7vfldyJvMEpRp8tutdKUggPnz52/Wctqvudn6lleU7psJ9Gm/WfV1hopo5gKttE7YfoVAwch/rEPbglhS2ZpxTsDpyS/DNsBWAnj66ac3ZLP9nEC2dF/K90fbfgOzO6VeabHfLQ4NCO5RVIAXmCFItiApAVkmP8FpO9BWAli4cOH9en7fKicg20k/dfVHImn7VeMYnlZYJ22/QqCg5Nq6COx6ZAueC2PVDqUIj4ajUkx+FU7agbYRwLZt2x7v7Oz0m5XoKOmfmWtAZb6Qth+V+Rpsxa3+AXC03QpQItW6hphoc+Mm1uEpvC3460itkKkUnpN2oC2fTLbf+973vvV6/50VEdJs0t+KMl8esv2AgT+y/eokLeFKh7fouVJANVARF99sxh7mOhbEjoOXQlUKEbikeX5OxgFsGVJk+xkp82VF8cRs5wzI9kOX+RqfhUv6aU9m3Mm5+tOqTytY+ip2XU1MvL8KJ91PhxNwW/BnIbmqCDtlB1pOAGT7Kau/ocaedXV10O+SedKPQLYfeu+PLvMlQ8Zfrr0rrfrZ5PQ9YBWwC3xa8M2wTxyMylOeyyk70HIC6Orq2ibDA86W7ktAS/9GIi1wma9P+uUiAFr1acXKd2ZjuTcubvbjVjXqKhQBlw97JihPYQ6ntgGWEgDZfosWLTLV6wrlBGSe9COQ7fdyH7ZV1TB69Zcs8Jdv1Z+pAiIiUIkLtu2n8mHAgODJmFu8Ea6S4rk6ZQdaSgCXXXbZg2avce7cOcigzVbS6f5d2NW/qXUOvMzXe3xyRKu1rPoztnCVZAviVECyfFgIrwKQ5cPMjtOSIYDnn3/+54FAwDStmbVIsqX7Eijd9+Aobt9Ftt858Gk/WQJ/elb9TNzVGIHagieT5wSw5cNeClVL8ZydsAMt+UTq7qOs/jdRFN/soR6zZcIzT/ol/86CMl/o7j40+Z22/Yys+tnwH7OwAcG94MIhPw/VSGELOhEHsGSItbW1vaDafmZJwEyZ8MzGHirQ+f5U5qsYuvvYtepn4v1VWFsw2VUogX0+/zPlFzLAbjsQTgAPP/zw3yur/8r0vzNLAkYCgbnSfa3o7oMu82Vld59CmJqagqz6mXhgFvZ499tgW/BQ1COFLWi3HQgngA984APPZPt7MyRgpEx4tnRfguzdfZws80XPjN6TFWmy7e6EuBUYELSifNhjUwHHCcDubQCUAJS9/7fmz5+fs8yXURLQy4rZ0n0J6DJfBHR3HyeSftRVnzrqWgkKCCJtQSof5gafE3A6IGi3HQglAGX1v7fQ7xghAb1lwnP9PrrMF7q7z5drztte5svKVT8TZAsSCaBAtuC7IXxA0Glb0C47kD4HRgDbt29/rVCZL6MkoKdMeLZ0XwIF/mTv7nNHm33VkO1a9TNBeQHLvDiVQ+XDvAlgxqEy+X/u8DkBO+xAmvy0RYZ8Etl+y5cvv1rPv9FDAloDUrnSfcn2Q5f5sqq7D03MUlr1s+GbzRHo9faBHxltA/ZZ3GbcyTgAFUNR7XUIAXR0dLxq9LSfVhLQ4gRkS/dVpT+6zJdV3X2snJROrfqZWOUKiqs9QRyhReMiAbTP6OTh94adbVNvpR1Ic0kdZ6YJ4JFHHvmSmTJfWkmgUCAwW2MPghXdfQaa50Ovl97dhxSMFc1RnVz16bMppTsYDE4PbLgKCCZg5wSoIOnOkEu8OuWcCrDKDqS5lj4GTBPAypUrHzJ7DS0kkG9S5JL+ydVf8u4+2cp8IUuik9yjld/OVX9kZEQMDQ0l8zDo8+mzKY7jcrmmB1+7Oy7uqMPdZ7J8GEDlUYIRKQrCAyPOKSUrtgHJoF9GfMEUATz33HOP57P9kCSQzwnIlu5LQJf5sqK7T7bWWqjeiOqWyIrCKukEMzw8PJ02TP9Ng5dqORRybz7vDwk/0BY8EowLr8nCIekJRn3RSvHIqDNbAbQdSIoiWyzNMAGkAn9rkV8yHwnkKhOerbFHkhQsyPe3s7tPrniGnlXf7DkKrXLe7/cbShumnIBv1ONiAWQLngwaJ4Cwcj+kJNLx1IRXjMedsQVRdiCNh1yEYpgAZs+evUWr7WdFTECV/rkGebF39zE6edGrvhY5bwara8PiCh8u4NUbJltQ/1aAEooOTM0kD5r833VoK4CwA2nrnC+AbugTnnjiiav02n4IEsi8kVxVg0uhuw8xtp5gIGLVNyPnzeCrddhzArsNdBV6NxhLKohs2H7eIw6G7T+aiYgD0HvLR9SG7qqtre3HRmw/sySQPuFzpfsSSqW7j1YCMLrqI+W8GVypKICbanBqjcqHiZh2VeFTFENvgf4D3x32JZ+XXT0rpxceE3Yg7ftJqeVVGXov+tRTT21YsWLFfDtuPpME1IeR66QfoRi6+2gt80WTEbnqWy3nzYAcAWRAcJeiArTagnunCv/en8Me8etEfVKW08SiZ2nHMzNqB1L8QEsgUTcBLFu27Dt2Dox0ElBXuFwn/QjoMl9WdPfRU+Yr1zan0KrvlJw3HBNxx8WtfpwKIBGgyRaMx6Ztv0L44URNMiZAE4ueJT1XIgIrn6eRbUCuiL9pAiDbr7W11fbjUioJ0ODNJ/3J9kOX+XK6u0+mf5/ehENGOW8GZAu2uXCTqWcqvy1ICkFPF+LTsUrxTEaDUZqgpKjIirbiEA+RjZ56GET0emo5aCYAsv1WrVq13qnBoZJArodRqt190oOB6U04ZJbzxgkyIf61IQi95rGp3IRLCiHT9iuEp89Xib7YzJdIWag08ehdoLcHeoglPc1X07zS+otk+1kd+MsGuhla3Wig0yDP5Wk+fhjd3ccL7e4ztzImbkmcVVZp/U0pifxoZadnoE5wVRrKKOfN4NrqSNIW/FMIQ7z9kYTo8MVErPLiYBgpgyMGcgYmEhXiwbFasalxPK9sJxWmVqM2m4+hdbzQGCkU9JtBGFouTrbf9ddf/4adk55uJluSD7FrQ8PFyYfk91/7yiHsl+haAU353TonmKyNZwREgMTs9GNFco9sOBRxiU+fwdXo81ZWiMv8Fy8a/cFowch/PjzeNCau8Go7z0CLlpqubrTPRSGiV4/36oUmQdrZ2flzO148rXBnzpxJTv5cAZBsDPedfdiMv8a6AHTyX5ksimls8tOzoBdLKoDu3aqOyTJhmScGtQVJ5ofT7DSvBtuvEB4c014zgBQrvUNSBbRtM7I9yGcHGp38mgiAbL/Fixe3WPWyidkoWk1BFNrrFuoHmJkn/8fBCfFq/xj0Ow23LYZe74EW496x+uLViU+SkkjBbj/abnyjIQi1BSnLT7UF902Zv25P1C12TOlXYzS+6Z2Ojo7qeoe57EB1gTCKSg1feLUVEp8mPE18egi0tzd6+OG/DmMz/hrB3X1W+6PJgphGQEE/9bmkp4WWgxqggODqGqwt2BuKiUQsqtn2KwSyBY2CtgNqTgHNhUKqIJsapq2F2ZRv2w48q/t6umG6eRrYRic9EUeyGi8YvtZ2EZjXIbqqcaW5FngThp9X+vMhSy9zkKhqoFRjAy3D/UKcmoBdr7++SfS1zJXqHtV5QKqAiKCpqSlrnIB+h95/+higf2M5AShf6gXlj48Z/QDa1w8ODk5LezONPqZlS9pquPaSWWLnEMB/dblFRes8MaAo7iblGbtAfsdfIl4xEA+KWZX6Vh0Kdmp5VunJUahjxDKAHJ3H31EIALRa0/utWrhEjAMd0puqsdswdXugknpmJijt9dUxQQupkQWUVAMpS7o+bb81uQBvvfXWsJ5z/+q+3swqrweff+uIaRJo7FwkhusulPnq8lWIRh/ue3/UFxa312r/fvROsp0DIFKor6/PGy8gJYDqqOwkfvDOQPIHBf+8BWKiqQ12vbmuuPjlrGFLnwFNVhoH9M7pnRLJ01agUNAvc5Kri282J0GTC3Do0KEbtQxaNRtNzdazq8b5PZeafLHKnl+d/ISjoQRsn0h4I+QVB3UUmSTyLKR8cqkBUlzFHhvonYpAJz+932jTHOh3/HrA+tLdmSnHRO5q0E9N9aa/pzlHv0M/RBhqngjNQVIRNPFz2YiaCOCLX/zim3v37t2VbdLTYRSyNuiL0QDMVpfPCqRHRZfXV4vV843HBBovWTrz+hFsUcbnp7Q9F3pRufK/Czkk6bEBWgGKNSPwPw70Q6/XsOASEQS2wPg7b0R8vCps6zOhMUFjXlUFeiZ53u201l/s6+tbrUzyhLqvT/frEft6vciUyKQCAh4DHV79dWLYM3PCvRsR0MzCg1G3+F2ocHARtXqTs1KMaoC2cr85A/zOyvsdqa6Hfsf76ydsfSa0yJKqJgVIq7yZalGGCeC222478fbbb2/W6tdbjcyod50y+dd26U9XCCxcmvP/OxvOXSTCCJ6azN91hgi1UPFOvQdOik0NPHAQbOsuWAS93i01QeiBpUIxALVPRPrqTlsAFAno0kWf+cxn1it7jikZBkq2rcadS1tFmw4LLzCvU4xX5N6bj8RIBWC7zvwymHuC56pxkLlFKFU18NSxc+LwGO4wkK+lVQy7cPaovyIhbvfb072XEoUyx0P6pEeRgO6NUU9Pzz2yDBhiyEzcc5nGgKDLLSJNrQV/7XQ4rvvEWD78bKpKDMRnPnZ6mVo8XTPKS2Y1QNutR945i7sgneJs64R+x68okx/Z3DTXFpDkPk3wzPeUmQ6MIAHdBLB+/fpNx44d65dh0GRLj7xuTp24srlwEYWWhYs0BYbouPhIGBsQpK2AU5BVDTzyzoCYADov/rntIgQM/JHtd0tt0LL7p8WMxjMtArlUXjZ71ywJGHpCx48fXyPDoMlliz2wqsAx3upaMVij3TU4FcbaglReKt0WVHMm9ASFEFsoWdQA2X5PHz+Hu6DXB/X8CVYG/tTj7oXyN3IRgxkSMEQAt99++5t79ux53emBkyvzrb3GK27NExCk1V/3ngysAramVEC+rkZ6tj7FrAa+ubsXer2GrqXQ613jC2s++qsHNGlV+1wLEecbJ0ZJwLBGGhgYWDs6OhoVkoICgtlsweqmFjHo1i/Bz0SxtuDJmEv8KuhLBnv0Am27OqkGyPb70zlgYI1sPy+2rdbX67BJP6TgyM3RW72pULEPIyRgmADuuOOOEz09PVucnui5Vi+yBYkEMgND7vaFxidtEGsLUnJQokr/YLUiw9IpNfDNPdhaDoGFS6DXu90/BbP90lN0EU0/ECRg6lt87nOf+1Jvb++IkwSQzxajvIB0WzAwd15e268QKA1qPIyTgmQLbo8Yq3yDiAM4rQYo3bdvCvc8fbPblPeLI0ey/W6pwTxneqbpJd2MQOu/00MCpmno+PHj9zlJAIXk8AOr5k0HhhD54EdCCagt+HKkRgwm9GcwouIATqkB2k5tPQbs30C23xxsuwqS/mZtPzWLz2yxVr3vWysJmCYAsgWVrcARpwigkBx+f4tfXDunTrR0LBRTAnNKbjCEnXxPhPSnqpqpAqNHDWgpVmEElPGHtP0a53dCbb8l7qjoNnHcV5X7hVSqVhgpOa6FBCBP7NSpU9eq5wScQCF2pHMCemy/QjhN5wSAg/dwzCsOxby6J6ddCovUgNEONdlwaCwotr8L3DlW1150mhOz+hu/XzWLT2+F3rwT1WDMoBAJQAggFRD8nVMEUIgdyRa8swG7ap8NYQ0QIyrAym1AtoGEUgMPgE/7GbF18+FGZeU3YvvROMyVxWcWWtLE8727XNs5mGZas2bNNU7ZglrKYd1aF4GmcdI5geEwzhYcSrjEyxF9jgByVbZLDbx6Zhxq+1U1NhuydXOBAn9f0Znvr2bx0SptVZ8Gs6W/aI5kK0IK9SIOHDjwPScIQIscrlMm/z1N2DPcp0NYW/CFiF9MJip1vVQnYFQNUOAPfdbfM68Ler3P1eo77ac1i8+OMV4I9B0zSQBKAOvWrfs3p23BfLjZHxXLvDiGpurSY0BbcCpRIZ4NB2wdFHaqgaeOn4PafoF5C0zZuplI5vtrtP3UQztas/hkQSYJwLMRjhw5crsTN6Y1ow6tAqh82CRQBrwVrRYn49q9bDvjAGbUAOX7Q20/C8p8aTntp2bx5Tu0YwWQJJNOAnACuO22257bv3//LrsHotaXQR16qFY/EsjkIIIeFaBWZXISWtTAD8Cn/Zo7OsUUuMxXIdvP6iw+J5SAJXfS39+/2m5bUE+fgLsawtCAIJUPm4riAoJkC/4lVqXpd2UajLnUAOX7Q20/f50YqmmCfvevBybzTny18aYTch9ZAiyTBCwZPWQLHjhwYLus7EedetbWYVVAXygGvd6zIW0qILN2vIxq4BFkhV8FlNSFBNl+Sz3RrHIfkcVnFvn6ApqFZcvHZz/72ZvttgX1BKTIFmxzY21BZOEQsgW3h+Wa3EbUwAvKyo+0/ajMF9r2yyzxjc7iQ6zURUcAhH379n3NzgeVrZlGLpAtSFsBJNDlw34drdV0TkDWWn8xbxU26cflFt65HdDvSLZf+nbQiiw+s7CShCwlADonYKctmKuefi6QLXhlFU66U/mw88AiomQLalEBsgalnjkxDA38Bea2Y22/yth0kU8rs/gQaqooCYDQ09Nzo10Pysg5eStsQeQ5AbIFC50TkC0OkIyJTEXEo0ewtt84uMzXNzxnp0tvW5nFZ3rbY2HCl+UEYHf5ML2++HJvHG4LorsKGa0Z4CQePIwN/FF3HyTI9qN8fzM59qUAW7QjlQ+zyxY0kqdOKgBtC45FsLYgKYF8MHJc1CpQ0O+1s0DryoLuPvfWjiRXfT1xI6dg5ZbEFgIgW3Dv3r0/soXRDOyHKSCItgUHQlHsOYFw/nMCMslX9OpvRXefllgwZxdmVgAWgMqHKUrA8q5CuSoFF8KdDWGsLRivgGYIXjgtmNv+crpVm4odfWOiZzwEu54V3X0+X/E3gnKir6WucTQyUhoEQJCpq1A2PNASgl4PXT6MYgFGyofZBQp+PnhI7u4+X66ZEPXui311I5WZbVuhLXZ4bCUAu8qHGfXF6ZwA0hYkDIPLhz0bqpM2DvDoX4ekL/P1adfIjD21LOopG6wOUtpuIPf29q6zOiBoZj+MVgHvgsuHvR3z5bQFnYwDkO33zMlh3AW9PniZr7s8uW1JGQ5VlXQMQAXZglaXDzOzr6NzApQmDN3HwU8LZl+xnKwP8O192EIf6O4+H/PmL/Ml65l+q9WJIylkVncVMts4g+oHIm3Bs9EKaPmwU3F3VlvQioYhWkC235+HgfFdC7r73OkezDvJqRS6jLCamBwhADu6CpmpW0e2ILqI6GmwLfhjRQVkswWtahiSd/XffwZ6PXR3n/XeUUXZFd4eWXXslgkgC6zuKmTW312rbAOw5cOwtuBUjq5CdlcIonz/08AyX/5kmS9sd5/PVmkLjuo9S8IxAJOwsnwYIn8afU7Ajq5CdvraFNz84RFsdx90ma9/8Z4TtUL79svuSst5Sd4GNecoAVD5MKtsQURAjGzBa2uwNsxg0NquQnbGAcjzh5b56rxEBIFDcqUrKG7w6ZvQTsVRsiFbGe+SIgCC012FCqsA7Es4HbW+q5Ad24DD4yHxYt8YkLFrxVAttszXbVX680Go2KfThVZVWF1qXAoCsLKrECLDi2xBeFchi1WAHTIWmvGXWv2R+JR7QqxyGfP2ZTkfYEdehxSVJKzqKoR6gPCuQvEKMRJCnxOohcY/8uG3Zyegth919xny4AJwtRVx8aUq41WSZDkfYEcDWGlKyVjRVUhPpeB8sKKrUF84bllXIasTgqCn/Vxu4ZmHLfK5xjUq5laaW09ksATt6PwkDQEUQ1ch5DkBsvHGQmHo9dL7CVi1j6UqP1DbL1nmCxd4m6NM/FsSZ0z75+ViCUpVTM6K8mHIgpl3gWMBR5X5b1VXISviAJTv//QJbL4/2va72zecDOQh3rsTSVXpsCM9WSoCoHMC6K5CyNNUV/qi4gYfdlAgVQBBVQFWyEfy/KG23/xOqO23yhUSV7unpu/f7OlIO6LwrAAygO4qhJRyVJzhq/WhZHYZCr3RCjFpQVchdByA8v2hth919wHbfndXXaxOzDbudKr7sjrWypIAyBZ86aWXfnD06FHI9VCJHTSQKDpMraOpljwSp4PYcwL5KgcZJoBhrPKh1R+JT3nOi8WVM9WU2WCezMVCEKiQ9Rhkd3c3bQUul/XBvXLrv4upAG4FaxdhMacOU/3Xe/KwaHnmIej9Hl5wuejpeC/kWq76JhFbgDvu6wlPiWu3fkt4QlMyzzU6/LZZsu903C3xA9ug/PxW1i936ZvbxM5P/TPsemeiQjTFE8JbaX7fWd2Db87cMtKPIYBkmS+s7bfkj/8r++S/b8eOHRs5BqADygN7TflD2gajc47uFs1978CuF3V7Rf858xF21+iQqN35Mvx+m0fPJH/Mwt3YLGIeXIJL9fg50bX7NzJP/hOyTn6pCSBNBUiLS9/YBr3egNdv+pxAwy+sq76+suf3JvcmPhFt64J+p1WvbhU8hkuUABTmPE7ySdbvVzf4rph/6A/Qa54xoQJo7+9TfqxCTXBCdPUeMv79Zs3FqhJFgTX39sg8hF9XxvALTADmsEn5kTYUu+LNbckgFAqjVQFxbtKYy9D4iyctv98lJ3cLT9RAQpS/ToSbsQSw8hVe/UueABQGHZH5QVLwiYJQSJwKxXTbgoE3dyj7/0Hr7zcaTpKA06t/1+7fiprxIZmH7hZl7O5iAsCQwGaSU7J+PwpCUTAKhajLIwbGtfvXlQoJ1e58xb777T0o6s5r36q4mmaLMNAyJcW1ZOcvZB6yo8Ww+hcNAaSwUeYvhw5G9Qqv5vJhda/8RFQG7S1ldemRnRpnv1uI1nnYbdcb22S3/TamlCsTAFAFvCYuJFNICQpGIW3BJAkMFw59eM6eEjV73rL/fkfPiDlDpwpL/6ZZIubBpdRaEXgFg2y/TcUyr4pJAagqQNqAIDoodc5TU9AWrHv5J47d74qjfyow+30iPLcTqzze/KnsY3RdMU2ooiKAlC0oLbtSUGrJTmxA8ORI7mOtNXt/b6ntV/B+gxNiyck9uef/nPnQz5tzbE8x2H6vMQFYCyKAE7J+OQoIIm3BoLdaDGSxBSnwF3hjh/P323swqy3oItuvAdfbj57pCnDiVbmv/kVJAMVgC6IHal9wpi1I6b522H4F7zcaVrYCMwOClXM7oJ+zUCFWyW2/76cUKhOADSRA2VXS2oIUpKJgFQpRt0f0p50Pv5Dv/4o893vmyEXnBNwtrSJSHYBdvwjy/SkutbEY51JREkAKcp8TAAer+l0107YgJf3YbfsVwtITqeQgl1skZrVjr/3HX8hu+20oFtuvZAgglWUltS2ItqtOnhtN5vs7YfsVvF9FAdA5AZ+y+iNtPwr8SW777U4lqhUl3KK4QSpgtfJTL+OXW/nq1uTgHWxfjHlZsaho2v+GtC+DYgFVtbUienIv5Ho1Y0OyT37plWghSFsRSCu6u7tp73WvYDDsx3Zl9V9dzDdQWexvIFVs4QSPRQav/mVIACms47HIsBn3FaPtV5IEkMq+ep3HJMMmkOLcVAo3UllCL4VVAMMubCxW269kCSAlx77PY5NhMV4vZtuvlBVAkpmFxKcFGSUzxgQTgJwqYKTUXhBDKmwpttN+5aYARKoYw24eqwwwijbfv6wIIIUNPF4ZYGwqBdsvE0WfCZgL3d3ddGLwJh63DACozFdnKd5YZQm/NFYBDB5L5UoAsncVYhQNpO/uwwSQZ98m2BZk8OpfngQge/kwhvT4fjF092ECyE8CmwWfE2DoR0nafmVHACls5PHM0DtmSiXfPx9K1gbMRHd3NymBtTyuGRpQsrZfuSoAVQVwQJChBevK5UbLhgBk7yrEkAavl1q+PxPA3yB1VyEGr/5MANaqALYFGflwXynm+zMBXEwCUncVYjiG0XLcIlaW6ctmFcCYMSbKwfbLRNnYgJlgW5CRBurus7Icb7yyjF/6BsG2IKPMFWHZEgCXD2OksL2cbD8mgItJgG3B8saoKPN4UCWPAe4nUMbYVG62HxPATBVA8o9twfJDyXT3YQJgFcDQj43laPsxAWRXASQDuatQ+aCkuvswAYBWBMG2YDm9awYTwEUqgOTgNRwPKPl9/83lbPtlomwzARkMBhMAg8EEwGAwmAAYDAYTAIPBYAJgMBhMAAwGgwmAwWAwATAYDCYABoPBBMBgMJgAGAwGEwCDwWACYDAYTAAMBoMJgMFgMAEwGAwmAAaDwQTAYDCYABgMBhMAg8FgAmAwGEwADAaDCYDBYNiA/xdgAI48f6T4c9ZhAAAAAElFTkSuQmCC;" parent="vSt-ulIdHb00yMuj97X6-7" vertex="1">
          <mxGeometry x="27.5" y="22.5" width="55" height="55" as="geometry" />
        </mxCell>
        <mxCell id="vSt-ulIdHb00yMuj97X6-10" value="Firebase" style="ellipse;shape=cloud;whiteSpace=wrap;html=1;" parent="1" vertex="1">
          <mxGeometry x="-390" y="350" width="120" height="80" as="geometry" />
        </mxCell>
        <mxCell id="vSt-ulIdHb00yMuj97X6-11" style="edgeStyle=orthogonalEdgeStyle;rounded=0;orthogonalLoop=1;jettySize=auto;html=1;entryX=0;entryY=0.5;entryDx=0;entryDy=0;" parent="1" source="vSt-ulIdHb00yMuj97X6-12" target="vSt-ulIdHb00yMuj97X6-16" edge="1">
          <mxGeometry relative="1" as="geometry">
            <mxPoint x="-330" y="280" as="targetPoint" />
          </mxGeometry>
        </mxCell>
        <mxCell id="vSt-ulIdHb00yMuj97X6-12" value="ICB" style="label;whiteSpace=wrap;html=1;align=center;verticalAlign=bottom;spacingLeft=0;spacingBottom=4;imageAlign=center;imageVerticalAlign=top;image=img/clipart/Gear_128x128.png" parent="1" vertex="1">
          <mxGeometry x="-510" y="222.5" width="120" height="80" as="geometry" />
        </mxCell>
        <mxCell id="vSt-ulIdHb00yMuj97X6-13" value="" style="group" parent="1" vertex="1" connectable="0">
          <mxGeometry x="-130.71" y="210" width="220" height="115" as="geometry" />
        </mxCell>
        <mxCell id="vSt-ulIdHb00yMuj97X6-14" value="&lt;b&gt;DSWFD Backend&lt;/b&gt;" style="rounded=1;whiteSpace=wrap;html=1;" parent="vSt-ulIdHb00yMuj97X6-13" vertex="1">
          <mxGeometry y="10" width="200" height="90" as="geometry" />
        </mxCell>
        <mxCell id="vSt-ulIdHb00yMuj97X6-16" value="SOAP" style="rounded=0;whiteSpace=wrap;html=1;" parent="vSt-ulIdHb00yMuj97X6-13" vertex="1">
          <mxGeometry x="-15.714285714285714" y="25" width="31.428571428571427" height="55" as="geometry" />
        </mxCell>
        <mxCell id="vSt-ulIdHb00yMuj97X6-17" value="REST" style="rounded=0;whiteSpace=wrap;html=1;" parent="vSt-ulIdHb00yMuj97X6-13" vertex="1">
          <mxGeometry x="130.71" y="85" width="59.29" height="30" as="geometry" />
        </mxCell>
        <mxCell id="vSt-ulIdHb00yMuj97X6-3" value="" style="shape=image;verticalLabelPosition=bottom;labelBackgroundColor=default;verticalAlign=top;aspect=fixed;imageAspect=0;image=data:image/svg+xml,PHN2ZyB4bWxuczp4bGluaz0iaHR0cDovL3d3dy53My5vcmcvMTk5OS94bGluayIgeG1sbnM9Imh0dHA6Ly93d3cudzMub3JnLzIwMDAvc3ZnIiB2aWV3Qm94PSIwIDAgMzU4LjQ2NCAyMzUuOTUyIj4mI3hhOwk8ZGVmcz4mI3hhOwkJPHN0eWxlPi5he2ZpbGw6I2ZmM2UwMDt9LmJ7ZmlsbDojZmZmO30uY3tmaWxsOiMxMjczZmY7fS5ke2ZpbGw6I2ZmZDgxNTt9PC9zdHlsZT4mI3hhOwkJPHN5bWJvbCB2aWV3Qm94PSIwIDAgOTMuMjI0IDExMiIgaWQ9ImEiPiYjeGE7CQkJPHBhdGggZD0iTTg3LjI2OSwxNC44MTlDNzYuODY5LS4wNjYsNTYuMzI4LTQuNDc4LDQxLjQ3Nyw0Ljk4NEwxNS40LDIxLjYwOEEyOS45MjEsMjkuOTIxLDAsMCwwLDEuODc2LDQxLjY1MSwzMS41MTQsMzEuNTE0LDAsMCwwLDQuOTg0LDYxLjg4MiwzMC4wMDYsMzAuMDA2LDAsMCwwLC41MDcsNzMuMDY1LDMxLjg5MiwzMS44OTIsMCwwLDAsNS45NTUsOTcuMTgxYzEwLjQsMTQuODg3LDMwLjk0MiwxOS4zLDQ1Ljc5MSw5LjgzNUw3Ny44MjksOTAuMzkyQTI5LjkxNSwyOS45MTUsMCwwLDAsOTEuMzQ3LDcwLjM0OWEzMS41MjIsMzEuNTIyLDAsMCwwLTMuMS0yMC4yMzIsMzAuMDE5LDMwLjAxOSwwLDAsMCw0LjQ3NC0xMS4xODIsMzEuODc4LDMxLjg3OCwwLDAsMC01LjQ0Ny0yNC4xMTYiIGNsYXNzPSJhIi8+JiN4YTsJCQk8cGF0aCBkPSJNMzguOTI5LDk4LjU4MmEyMC43MiwyMC43MiwwLDAsMS0yMi4yMzctOC4yNDMsMTkuMTc2LDE5LjE3NiwwLDAsMS0zLjI3Ni0xNC41LDE4LjE0MywxOC4xNDMsMCwwLDEsLjYyMy0yLjQzNWwuNDkxLTEuNSwxLjMzNy45ODFhMzMuNjMzLDMzLjYzMywwLDAsMCwxMC4yLDUuMWwuOTY5LjI5NC0uMDg5Ljk2OEE1Ljg0NCw1Ljg0NCwwLDAsMCwyOCw4My4xMjJhNi4yNCw2LjI0LDAsMCwwLDYuNywyLjQ4NSw1Ljc0OCw1Ljc0OCwwLDAsMCwxLjYtLjdMNjIuMzgyLDY4LjI4MWE1LjQzLDUuNDMsMCwwLDAsMi40NTEtMy42MzEsNS43OTQsNS43OTQsMCwwLDAtLjk4OC00LjM3MSw2LjI0NCw2LjI0NCwwLDAsMC02LjctMi40ODcsNS43NTUsNS43NTUsMCwwLDAtMS42LjdsLTkuOTUzLDYuMzQ1YTE5LjA2LDE5LjA2LDAsMCwxLTUuMywyLjMyNiwyMC43MTksMjAuNzE5LDAsMCwxLTIyLjIzNy04LjI0MywxOS4xNzEsMTkuMTcxLDAsMCwxLTMuMjc3LTE0LjVBMTcuOTkyLDE3Ljk5MiwwLDAsMSwyMi45MTUsMzIuMzdMNDksMTUuNzQ3YTE5LjAzLDE5LjAzLDAsMCwxLDUuMy0yLjMyOSwyMC43MiwyMC43MiwwLDAsMSwyMi4yMzcsOC4yNDMsMTkuMTc2LDE5LjE3NiwwLDAsMSwzLjI3NywxNC41LDE4LjQ1MywxOC40NTMsMCwwLDEtLjYyNCwyLjQzNWwtLjQ5MSwxLjUtMS4zMzYtLjk3OWEzMy42MTYsMzMuNjE2LDAsMCwwLTEwLjItNS4xbC0uOTctLjI5NC4wOS0uOTY4YTUuODU5LDUuODU5LDAsMCwwLTEuMDUyLTMuODc4LDYuMjQxLDYuMjQxLDAsMCwwLTYuNy0yLjQ4NSw1Ljc0OCw1Ljc0OCwwLDAsMC0xLjYuN0wzMC44NDIsNDMuNzE5YTUuNDIxLDUuNDIxLDAsMCwwLTIuNDQ5LDMuNjMsNS43OSw1Ljc5LDAsMCwwLC45ODYsNC4zNzIsNi4yNDUsNi4yNDUsMCwwLDAsNi43LDIuNDg3LDUuNzczLDUuNzczLDAsMCwwLDEuNi0uN2w5Ljk1Mi02LjM0MmExOC45NzgsMTguOTc4LDAsMCwxLDUuMy0yLjMyOCwyMC43MTgsMjAuNzE4LDAsMCwxLDIyLjIzNiw4LjI0MywxOS4xNzEsMTkuMTcxLDAsMCwxLDMuMjc3LDE0LjUsMTgsMTgsMCwwLDEtOC4xMywxMi4wNTRMNDQuMjI5LDk2LjI1M2ExOS4wMTcsMTkuMDE3LDAsMCwxLTUuMywyLjMyOSIgY2xhc3M9ImIiLz4mI3hhOwkJPC9zeW1ib2w+JiN4YTsJPC9kZWZzPiYjeGE7CTx1c2UgeGxpbms6aHJlZj0iI2EiIHRyYW5zZm9ybT0idHJhbnNsYXRlKDM0LjIyOCAyOS4yNjcpIHNjYWxlKDEuNTg0KSIgaGVpZ2h0PSIxMTIiIHdpZHRoPSI5My4yMjQiLz4mI3hhOzwvc3ZnPg==;clipPath=inset(2.28% 41% 5.84% 2.33%);" parent="vSt-ulIdHb00yMuj97X6-13" vertex="1">
          <mxGeometry x="15.709999999999994" y="22" width="52.6" height="56" as="geometry" />
        </mxCell>
        <mxCell id="vSt-ulIdHb00yMuj97X6-18" style="edgeStyle=orthogonalEdgeStyle;rounded=0;orthogonalLoop=1;jettySize=auto;html=1;entryX=0.25;entryY=1;entryDx=0;entryDy=0;" parent="1" target="vSt-ulIdHb00yMuj97X6-14" edge="1">
          <mxGeometry relative="1" as="geometry">
            <mxPoint x="-81" y="400" as="sourcePoint" />
          </mxGeometry>
        </mxCell>
        <mxCell id="vSt-ulIdHb00yMuj97X6-19" style="edgeStyle=orthogonalEdgeStyle;rounded=0;orthogonalLoop=1;jettySize=auto;html=1;exitX=0.5;exitY=1;exitDx=0;exitDy=0;entryX=0.5;entryY=1;entryDx=0;entryDy=0;" parent="1" source="vSt-ulIdHb00yMuj97X6-2" target="vSt-ulIdHb00yMuj97X6-8" edge="1">
          <mxGeometry relative="1" as="geometry">
            <Array as="points">
              <mxPoint x="-10" y="480" />
              <mxPoint x="345" y="480" />
            </Array>
          </mxGeometry>
        </mxCell>
        <mxCell id="vSt-ulIdHb00yMuj97X6-20" value="authenticates" style="edgeLabel;html=1;align=center;verticalAlign=middle;resizable=0;points=[];" parent="vSt-ulIdHb00yMuj97X6-19" vertex="1" connectable="0">
          <mxGeometry x="0.6504" y="-1" relative="1" as="geometry">
            <mxPoint as="offset" />
          </mxGeometry>
        </mxCell>
        <mxCell id="vSt-ulIdHb00yMuj97X6-21" value="" style="shape=image;verticalLabelPosition=bottom;labelBackgroundColor=default;verticalAlign=top;aspect=fixed;imageAspect=0;image=data:image/svg+xml,PHN2ZyB4bWxucz0iaHR0cDovL3d3dy53My5vcmcvMjAwMC9zdmciIHZpZXdCb3g9IjAgMCAxMjc0LjM3IDcxOCIgZGF0YS1uYW1lPSJMYXllciAxIiBpZD0iTGF5ZXJfMSI+PGRlZnM+PHN0eWxlPi5jbHMtMXtmaWxsOiMzZGRjODQ7fTwvc3R5bGU+PC9kZWZzPjx0aXRsZT5BbmRyb2lkIHJvYm90PC90aXRsZT48cGF0aCBkPSJNOTMwLjc3LDUzNi40MmE1My4wNyw1My4wNywwLDEsMSw1My4wNi01My4wOCw1My4xNCw1My4xNCwwLDAsMS01My4wNiw1My4wOG0tNTg2LjU0LDBhNTMuMDcsNTMuMDcsMCwxLDEsNTMuMDYtNTMuMDgsNTMuMTMsNTMuMTMsMCwwLDEtNTMuMDYsNTMuMDhNOTQ5LjgsMjE2Ljc3LDEwNTUuODUsMzMuMDlBMjIuMDYsMjIuMDYsMCwxLDAsMTAxNy42NCwxMUw5MTAuMjUsMTk3Yy04Mi4xMi0zNy40OC0xNzQuMzUtNTguMzUtMjcyLjc2LTU4LjM1UzQ0Ni44NiwxNTkuNTUsMzY0Ljc0LDE5N0wyNTcuMzYsMTFhMjIuMDYsMjIuMDYsMCwxLDAtMzguMjIsMjIuMDZMMzI1LjIsMjE2Ljc3QzE0My4wOSwzMTUuODIsMTguNTMsNTAwLjE4LjMxLDcxOEgxMjc0LjY5Yy0xOC4yNC0yMTcuODItMTQyLjc5LTQwMi4xOC0zMjQuODktNTAxLjIzIiBjbGFzcz0iY2xzLTEiLz48L3N2Zz4=;" parent="1" vertex="1">
          <mxGeometry x="110" y="422" width="46.16" height="26" as="geometry" />
        </mxCell>
        <mxCell id="vSt-ulIdHb00yMuj97X6-22" style="edgeStyle=orthogonalEdgeStyle;rounded=0;orthogonalLoop=1;jettySize=auto;html=1;entryX=0.5;entryY=1;entryDx=0;entryDy=0;entryPerimeter=0;" parent="1" source="vSt-ulIdHb00yMuj97X6-14" target="vSt-ulIdHb00yMuj97X6-6" edge="1">
          <mxGeometry relative="1" as="geometry" />
        </mxCell>
        <mxCell id="vSt-ulIdHb00yMuj97X6-23" style="edgeStyle=orthogonalEdgeStyle;rounded=0;orthogonalLoop=1;jettySize=auto;html=1;exitX=1;exitY=0.5;exitDx=0;exitDy=0;entryX=0;entryY=0.5;entryDx=0;entryDy=0;" parent="1" source="vSt-ulIdHb00yMuj97X6-14" target="vSt-ulIdHb00yMuj97X6-8" edge="1">
          <mxGeometry relative="1" as="geometry" />
        </mxCell>
        <mxCell id="vSt-ulIdHb00yMuj97X6-24" value="verifies auth" style="edgeLabel;html=1;align=center;verticalAlign=middle;resizable=0;points=[];" parent="vSt-ulIdHb00yMuj97X6-23" vertex="1" connectable="0">
          <mxGeometry x="-0.1897" y="1" relative="1" as="geometry">
            <mxPoint as="offset" />
          </mxGeometry>
        </mxCell>
        <mxCell id="vSt-ulIdHb00yMuj97X6-26" style="edgeStyle=orthogonalEdgeStyle;rounded=0;orthogonalLoop=1;jettySize=auto;html=1;exitX=0.5;exitY=1;exitDx=0;exitDy=0;entryX=0.552;entryY=0.041;entryDx=0;entryDy=0;entryPerimeter=0;" parent="1" source="vSt-ulIdHb00yMuj97X6-14" target="vSt-ulIdHb00yMuj97X6-2" edge="1">
          <mxGeometry relative="1" as="geometry" />
        </mxCell>
      </root>
    </mxGraphModel>
  </diagram>
  <diagram id="jXVuIPrQPa5cMLcLNPmb" name="Page-4">
    <mxGraphModel dx="1889" dy="656" grid="1" gridSize="10" guides="1" tooltips="1" connect="1" arrows="1" fold="1" page="1" pageScale="1" pageWidth="850" pageHeight="1100" math="0" shadow="0">
      <root>
        <mxCell id="0" />
        <mxCell id="1" parent="0" />
        <mxCell id="d_FraRCpbDY2VF9HvyV4-1" value="" style="group" parent="1" vertex="1" connectable="0">
          <mxGeometry x="-20" y="382.5" width="180" height="70" as="geometry" />
        </mxCell>
        <mxCell id="d_FraRCpbDY2VF9HvyV4-2" value="SvelteKit Client" style="rounded=1;whiteSpace=wrap;html=1;align=right;spacingRight=19;" parent="d_FraRCpbDY2VF9HvyV4-1" vertex="1">
          <mxGeometry width="180" height="70" as="geometry" />
        </mxCell>
        <mxCell id="d_FraRCpbDY2VF9HvyV4-3" value="" style="shape=image;verticalLabelPosition=bottom;labelBackgroundColor=default;verticalAlign=top;aspect=fixed;imageAspect=0;image=data:image/svg+xml,PHN2ZyB4bWxuczp4bGluaz0iaHR0cDovL3d3dy53My5vcmcvMTk5OS94bGluayIgeG1sbnM9Imh0dHA6Ly93d3cudzMub3JnLzIwMDAvc3ZnIiB2aWV3Qm94PSIwIDAgMzU4LjQ2NCAyMzUuOTUyIj4mI3hhOwk8ZGVmcz4mI3hhOwkJPHN0eWxlPi5he2ZpbGw6I2ZmM2UwMDt9LmJ7ZmlsbDojZmZmO30uY3tmaWxsOiMxMjczZmY7fS5ke2ZpbGw6I2ZmZDgxNTt9PC9zdHlsZT4mI3hhOwkJPHN5bWJvbCB2aWV3Qm94PSIwIDAgOTMuMjI0IDExMiIgaWQ9ImEiPiYjeGE7CQkJPHBhdGggZD0iTTg3LjI2OSwxNC44MTlDNzYuODY5LS4wNjYsNTYuMzI4LTQuNDc4LDQxLjQ3Nyw0Ljk4NEwxNS40LDIxLjYwOEEyOS45MjEsMjkuOTIxLDAsMCwwLDEuODc2LDQxLjY1MSwzMS41MTQsMzEuNTE0LDAsMCwwLDQuOTg0LDYxLjg4MiwzMC4wMDYsMzAuMDA2LDAsMCwwLC41MDcsNzMuMDY1LDMxLjg5MiwzMS44OTIsMCwwLDAsNS45NTUsOTcuMTgxYzEwLjQsMTQuODg3LDMwLjk0MiwxOS4zLDQ1Ljc5MSw5LjgzNUw3Ny44MjksOTAuMzkyQTI5LjkxNSwyOS45MTUsMCwwLDAsOTEuMzQ3LDcwLjM0OWEzMS41MjIsMzEuNTIyLDAsMCwwLTMuMS0yMC4yMzIsMzAuMDE5LDMwLjAxOSwwLDAsMCw0LjQ3NC0xMS4xODIsMzEuODc4LDMxLjg3OCwwLDAsMC01LjQ0Ny0yNC4xMTYiIGNsYXNzPSJhIi8+JiN4YTsJCQk8cGF0aCBkPSJNMzguOTI5LDk4LjU4MmEyMC43MiwyMC43MiwwLDAsMS0yMi4yMzctOC4yNDMsMTkuMTc2LDE5LjE3NiwwLDAsMS0zLjI3Ni0xNC41LDE4LjE0MywxOC4xNDMsMCwwLDEsLjYyMy0yLjQzNWwuNDkxLTEuNSwxLjMzNy45ODFhMzMuNjMzLDMzLjYzMywwLDAsMCwxMC4yLDUuMWwuOTY5LjI5NC0uMDg5Ljk2OEE1Ljg0NCw1Ljg0NCwwLDAsMCwyOCw4My4xMjJhNi4yNCw2LjI0LDAsMCwwLDYuNywyLjQ4NSw1Ljc0OCw1Ljc0OCwwLDAsMCwxLjYtLjdMNjIuMzgyLDY4LjI4MWE1LjQzLDUuNDMsMCwwLDAsMi40NTEtMy42MzEsNS43OTQsNS43OTQsMCwwLDAtLjk4OC00LjM3MSw2LjI0NCw2LjI0NCwwLDAsMC02LjctMi40ODcsNS43NTUsNS43NTUsMCwwLDAtMS42LjdsLTkuOTUzLDYuMzQ1YTE5LjA2LDE5LjA2LDAsMCwxLTUuMywyLjMyNiwyMC43MTksMjAuNzE5LDAsMCwxLTIyLjIzNy04LjI0MywxOS4xNzEsMTkuMTcxLDAsMCwxLTMuMjc3LTE0LjVBMTcuOTkyLDE3Ljk5MiwwLDAsMSwyMi45MTUsMzIuMzdMNDksMTUuNzQ3YTE5LjAzLDE5LjAzLDAsMCwxLDUuMy0yLjMyOSwyMC43MiwyMC43MiwwLDAsMSwyMi4yMzcsOC4yNDMsMTkuMTc2LDE5LjE3NiwwLDAsMSwzLjI3NywxNC41LDE4LjQ1MywxOC40NTMsMCwwLDEtLjYyNCwyLjQzNWwtLjQ5MSwxLjUtMS4zMzYtLjk3OWEzMy42MTYsMzMuNjE2LDAsMCwwLTEwLjItNS4xbC0uOTctLjI5NC4wOS0uOTY4YTUuODU5LDUuODU5LDAsMCwwLTEuMDUyLTMuODc4LDYuMjQxLDYuMjQxLDAsMCwwLTYuNy0yLjQ4NSw1Ljc0OCw1Ljc0OCwwLDAsMC0xLjYuN0wzMC44NDIsNDMuNzE5YTUuNDIxLDUuNDIxLDAsMCwwLTIuNDQ5LDMuNjMsNS43OSw1Ljc5LDAsMCwwLC45ODYsNC4zNzIsNi4yNDUsNi4yNDUsMCwwLDAsNi43LDIuNDg3LDUuNzczLDUuNzczLDAsMCwwLDEuNi0uN2w5Ljk1Mi02LjM0MmExOC45NzgsMTguOTc4LDAsMCwxLDUuMy0yLjMyOCwyMC43MTgsMjAuNzE4LDAsMCwxLDIyLjIzNiw4LjI0MywxOS4xNzEsMTkuMTcxLDAsMCwxLDMuMjc3LDE0LjUsMTgsMTgsMCwwLDEtOC4xMywxMi4wNTRMNDQuMjI5LDk2LjI1M2ExOS4wMTcsMTkuMDE3LDAsMCwxLTUuMywyLjMyOSIgY2xhc3M9ImIiLz4mI3hhOwkJPC9zeW1ib2w+JiN4YTsJPC9kZWZzPiYjeGE7CTx1c2UgeGxpbms6aHJlZj0iI2EiIHRyYW5zZm9ybT0idHJhbnNsYXRlKDM0LjIyOCAyOS4yNjcpIHNjYWxlKDEuNTg0KSIgaGVpZ2h0PSIxMTIiIHdpZHRoPSI5My4yMjQiLz4mI3hhOzwvc3ZnPg==;clipPath=inset(2.28% 41% 5.84% 2.33%);" parent="d_FraRCpbDY2VF9HvyV4-1" vertex="1">
          <mxGeometry x="10" y="7" width="52.6" height="56" as="geometry" />
        </mxCell>
        <mxCell id="d_FraRCpbDY2VF9HvyV4-6" value="" style="group" parent="1" vertex="1" connectable="0">
          <mxGeometry x="270" y="180" width="220" height="115" as="geometry" />
        </mxCell>
        <mxCell id="d_FraRCpbDY2VF9HvyV4-7" value="&lt;b&gt;DSWFD Backend&lt;/b&gt;" style="rounded=1;whiteSpace=wrap;html=1;" parent="d_FraRCpbDY2VF9HvyV4-6" vertex="1">
          <mxGeometry width="220" height="100" as="geometry" />
        </mxCell>
        <mxCell id="d_FraRCpbDY2VF9HvyV4-8" value="" style="shape=image;verticalLabelPosition=bottom;labelBackgroundColor=default;verticalAlign=top;aspect=fixed;imageAspect=0;image=https://spring.io/img/spring.svg;" parent="d_FraRCpbDY2VF9HvyV4-6" vertex="1">
          <mxGeometry x="29.995714285714286" y="9" width="31.428571428571427" height="31.428571428571427" as="geometry" />
        </mxCell>
        <mxCell id="d_FraRCpbDY2VF9HvyV4-11" style="edgeStyle=orthogonalEdgeStyle;rounded=0;orthogonalLoop=1;jettySize=auto;html=1;entryX=0;entryY=0.25;entryDx=0;entryDy=0;exitX=0.944;exitY=0.339;exitDx=0;exitDy=0;exitPerimeter=0;" parent="1" source="J32X09nQYzE7TfpPt7c1-2" target="d_FraRCpbDY2VF9HvyV4-10" edge="1">
          <mxGeometry relative="1" as="geometry" />
        </mxCell>
        <mxCell id="J32X09nQYzE7TfpPt7c1-4" style="edgeStyle=orthogonalEdgeStyle;rounded=0;orthogonalLoop=1;jettySize=auto;html=1;exitX=0;exitY=0.75;exitDx=0;exitDy=0;entryX=0.993;entryY=0.652;entryDx=0;entryDy=0;entryPerimeter=0;" edge="1" parent="1" source="d_FraRCpbDY2VF9HvyV4-10" target="J32X09nQYzE7TfpPt7c1-2">
          <mxGeometry relative="1" as="geometry" />
        </mxCell>
        <mxCell id="d_FraRCpbDY2VF9HvyV4-10" value="REST&lt;br&gt;API" style="rounded=0;whiteSpace=wrap;html=1;" parent="1" vertex="1">
          <mxGeometry x="250" y="207.5" width="40" height="45" as="geometry" />
        </mxCell>
        <mxCell id="J32X09nQYzE7TfpPt7c1-1" value="" style="group" vertex="1" connectable="0" parent="1">
          <mxGeometry x="-20" y="195" width="180" height="70" as="geometry" />
        </mxCell>
        <mxCell id="J32X09nQYzE7TfpPt7c1-2" value="SvelteKit Server" style="rounded=1;whiteSpace=wrap;html=1;align=right;spacingRight=19;" vertex="1" parent="J32X09nQYzE7TfpPt7c1-1">
          <mxGeometry width="180" height="70" as="geometry" />
        </mxCell>
        <mxCell id="J32X09nQYzE7TfpPt7c1-3" value="" style="shape=image;verticalLabelPosition=bottom;labelBackgroundColor=default;verticalAlign=top;aspect=fixed;imageAspect=0;image=data:image/svg+xml,PHN2ZyB4bWxuczp4bGluaz0iaHR0cDovL3d3dy53My5vcmcvMTk5OS94bGluayIgeG1sbnM9Imh0dHA6Ly93d3cudzMub3JnLzIwMDAvc3ZnIiB2aWV3Qm94PSIwIDAgMzU4LjQ2NCAyMzUuOTUyIj4mI3hhOwk8ZGVmcz4mI3hhOwkJPHN0eWxlPi5he2ZpbGw6I2ZmM2UwMDt9LmJ7ZmlsbDojZmZmO30uY3tmaWxsOiMxMjczZmY7fS5ke2ZpbGw6I2ZmZDgxNTt9PC9zdHlsZT4mI3hhOwkJPHN5bWJvbCB2aWV3Qm94PSIwIDAgOTMuMjI0IDExMiIgaWQ9ImEiPiYjeGE7CQkJPHBhdGggZD0iTTg3LjI2OSwxNC44MTlDNzYuODY5LS4wNjYsNTYuMzI4LTQuNDc4LDQxLjQ3Nyw0Ljk4NEwxNS40LDIxLjYwOEEyOS45MjEsMjkuOTIxLDAsMCwwLDEuODc2LDQxLjY1MSwzMS41MTQsMzEuNTE0LDAsMCwwLDQuOTg0LDYxLjg4MiwzMC4wMDYsMzAuMDA2LDAsMCwwLC41MDcsNzMuMDY1LDMxLjg5MiwzMS44OTIsMCwwLDAsNS45NTUsOTcuMTgxYzEwLjQsMTQuODg3LDMwLjk0MiwxOS4zLDQ1Ljc5MSw5LjgzNUw3Ny44MjksOTAuMzkyQTI5LjkxNSwyOS45MTUsMCwwLDAsOTEuMzQ3LDcwLjM0OWEzMS41MjIsMzEuNTIyLDAsMCwwLTMuMS0yMC4yMzIsMzAuMDE5LDMwLjAxOSwwLDAsMCw0LjQ3NC0xMS4xODIsMzEuODc4LDMxLjg3OCwwLDAsMC01LjQ0Ny0yNC4xMTYiIGNsYXNzPSJhIi8+JiN4YTsJCQk8cGF0aCBkPSJNMzguOTI5LDk4LjU4MmEyMC43MiwyMC43MiwwLDAsMS0yMi4yMzctOC4yNDMsMTkuMTc2LDE5LjE3NiwwLDAsMS0zLjI3Ni0xNC41LDE4LjE0MywxOC4xNDMsMCwwLDEsLjYyMy0yLjQzNWwuNDkxLTEuNSwxLjMzNy45ODFhMzMuNjMzLDMzLjYzMywwLDAsMCwxMC4yLDUuMWwuOTY5LjI5NC0uMDg5Ljk2OEE1Ljg0NCw1Ljg0NCwwLDAsMCwyOCw4My4xMjJhNi4yNCw2LjI0LDAsMCwwLDYuNywyLjQ4NSw1Ljc0OCw1Ljc0OCwwLDAsMCwxLjYtLjdMNjIuMzgyLDY4LjI4MWE1LjQzLDUuNDMsMCwwLDAsMi40NTEtMy42MzEsNS43OTQsNS43OTQsMCwwLDAtLjk4OC00LjM3MSw2LjI0NCw2LjI0NCwwLDAsMC02LjctMi40ODcsNS43NTUsNS43NTUsMCwwLDAtMS42LjdsLTkuOTUzLDYuMzQ1YTE5LjA2LDE5LjA2LDAsMCwxLTUuMywyLjMyNiwyMC43MTksMjAuNzE5LDAsMCwxLTIyLjIzNy04LjI0MywxOS4xNzEsMTkuMTcxLDAsMCwxLTMuMjc3LTE0LjVBMTcuOTkyLDE3Ljk5MiwwLDAsMSwyMi45MTUsMzIuMzdMNDksMTUuNzQ3YTE5LjAzLDE5LjAzLDAsMCwxLDUuMy0yLjMyOSwyMC43MiwyMC43MiwwLDAsMSwyMi4yMzcsOC4yNDMsMTkuMTc2LDE5LjE3NiwwLDAsMSwzLjI3NywxNC41LDE4LjQ1MywxOC40NTMsMCwwLDEtLjYyNCwyLjQzNWwtLjQ5MSwxLjUtMS4zMzYtLjk3OWEzMy42MTYsMzMuNjE2LDAsMCwwLTEwLjItNS4xbC0uOTctLjI5NC4wOS0uOTY4YTUuODU5LDUuODU5LDAsMCwwLTEuMDUyLTMuODc4LDYuMjQxLDYuMjQxLDAsMCwwLTYuNy0yLjQ4NSw1Ljc0OCw1Ljc0OCwwLDAsMC0xLjYuN0wzMC44NDIsNDMuNzE5YTUuNDIxLDUuNDIxLDAsMCwwLTIuNDQ5LDMuNjMsNS43OSw1Ljc5LDAsMCwwLC45ODYsNC4zNzIsNi4yNDUsNi4yNDUsMCwwLDAsNi43LDIuNDg3LDUuNzczLDUuNzczLDAsMCwwLDEuNi0uN2w5Ljk1Mi02LjM0MmExOC45NzgsMTguOTc4LDAsMCwxLDUuMy0yLjMyOCwyMC43MTgsMjAuNzE4LDAsMCwxLDIyLjIzNiw4LjI0MywxOS4xNzEsMTkuMTcxLDAsMCwxLDMuMjc3LDE0LjUsMTgsMTgsMCwwLDEtOC4xMywxMi4wNTRMNDQuMjI5LDk2LjI1M2ExOS4wMTcsMTkuMDE3LDAsMCwxLTUuMywyLjMyOSIgY2xhc3M9ImIiLz4mI3hhOwkJPC9zeW1ib2w+JiN4YTsJPC9kZWZzPiYjeGE7CTx1c2UgeGxpbms6aHJlZj0iI2EiIHRyYW5zZm9ybT0idHJhbnNsYXRlKDM0LjIyOCAyOS4yNjcpIHNjYWxlKDEuNTg0KSIgaGVpZ2h0PSIxMTIiIHdpZHRoPSI5My4yMjQiLz4mI3hhOzwvc3ZnPg==;clipPath=inset(2.28% 41% 5.84% 2.33%);" vertex="1" parent="J32X09nQYzE7TfpPt7c1-1">
          <mxGeometry x="10" y="7" width="52.6" height="56" as="geometry" />
        </mxCell>
        <mxCell id="J32X09nQYzE7TfpPt7c1-6" style="edgeStyle=orthogonalEdgeStyle;rounded=0;orthogonalLoop=1;jettySize=auto;html=1;exitX=0.75;exitY=1;exitDx=0;exitDy=0;entryX=0.75;entryY=0;entryDx=0;entryDy=0;" edge="1" parent="1" source="J32X09nQYzE7TfpPt7c1-2" target="d_FraRCpbDY2VF9HvyV4-2">
          <mxGeometry relative="1" as="geometry" />
        </mxCell>
        <mxCell id="J32X09nQYzE7TfpPt7c1-9" value="load" style="edgeLabel;html=1;align=center;verticalAlign=middle;resizable=0;points=[];" vertex="1" connectable="0" parent="J32X09nQYzE7TfpPt7c1-6">
          <mxGeometry x="0.1121" y="2" relative="1" as="geometry">
            <mxPoint as="offset" />
          </mxGeometry>
        </mxCell>
        <mxCell id="J32X09nQYzE7TfpPt7c1-7" style="edgeStyle=orthogonalEdgeStyle;rounded=0;orthogonalLoop=1;jettySize=auto;html=1;exitX=0.25;exitY=0;exitDx=0;exitDy=0;entryX=0.25;entryY=1;entryDx=0;entryDy=0;" edge="1" parent="1" source="d_FraRCpbDY2VF9HvyV4-2" target="J32X09nQYzE7TfpPt7c1-2">
          <mxGeometry relative="1" as="geometry" />
        </mxCell>
        <mxCell id="J32X09nQYzE7TfpPt7c1-8" value="actions" style="edgeLabel;html=1;align=center;verticalAlign=middle;resizable=0;points=[];" vertex="1" connectable="0" parent="J32X09nQYzE7TfpPt7c1-7">
          <mxGeometry x="-0.061" y="1" relative="1" as="geometry">
            <mxPoint as="offset" />
          </mxGeometry>
        </mxCell>
        <mxCell id="J32X09nQYzE7TfpPt7c1-10" value="" style="group" vertex="1" connectable="0" parent="1">
          <mxGeometry x="-20" y="762.5" width="180" height="70" as="geometry" />
        </mxCell>
        <mxCell id="J32X09nQYzE7TfpPt7c1-11" value="SvelteKit Client" style="rounded=1;whiteSpace=wrap;html=1;align=right;spacingRight=19;" vertex="1" parent="J32X09nQYzE7TfpPt7c1-10">
          <mxGeometry width="180" height="70" as="geometry" />
        </mxCell>
        <mxCell id="J32X09nQYzE7TfpPt7c1-12" value="" style="shape=image;verticalLabelPosition=bottom;labelBackgroundColor=default;verticalAlign=top;aspect=fixed;imageAspect=0;image=data:image/svg+xml,PHN2ZyB4bWxuczp4bGluaz0iaHR0cDovL3d3dy53My5vcmcvMTk5OS94bGluayIgeG1sbnM9Imh0dHA6Ly93d3cudzMub3JnLzIwMDAvc3ZnIiB2aWV3Qm94PSIwIDAgMzU4LjQ2NCAyMzUuOTUyIj4mI3hhOwk8ZGVmcz4mI3hhOwkJPHN0eWxlPi5he2ZpbGw6I2ZmM2UwMDt9LmJ7ZmlsbDojZmZmO30uY3tmaWxsOiMxMjczZmY7fS5ke2ZpbGw6I2ZmZDgxNTt9PC9zdHlsZT4mI3hhOwkJPHN5bWJvbCB2aWV3Qm94PSIwIDAgOTMuMjI0IDExMiIgaWQ9ImEiPiYjeGE7CQkJPHBhdGggZD0iTTg3LjI2OSwxNC44MTlDNzYuODY5LS4wNjYsNTYuMzI4LTQuNDc4LDQxLjQ3Nyw0Ljk4NEwxNS40LDIxLjYwOEEyOS45MjEsMjkuOTIxLDAsMCwwLDEuODc2LDQxLjY1MSwzMS41MTQsMzEuNTE0LDAsMCwwLDQuOTg0LDYxLjg4MiwzMC4wMDYsMzAuMDA2LDAsMCwwLC41MDcsNzMuMDY1LDMxLjg5MiwzMS44OTIsMCwwLDAsNS45NTUsOTcuMTgxYzEwLjQsMTQuODg3LDMwLjk0MiwxOS4zLDQ1Ljc5MSw5LjgzNUw3Ny44MjksOTAuMzkyQTI5LjkxNSwyOS45MTUsMCwwLDAsOTEuMzQ3LDcwLjM0OWEzMS41MjIsMzEuNTIyLDAsMCwwLTMuMS0yMC4yMzIsMzAuMDE5LDMwLjAxOSwwLDAsMCw0LjQ3NC0xMS4xODIsMzEuODc4LDMxLjg3OCwwLDAsMC01LjQ0Ny0yNC4xMTYiIGNsYXNzPSJhIi8+JiN4YTsJCQk8cGF0aCBkPSJNMzguOTI5LDk4LjU4MmEyMC43MiwyMC43MiwwLDAsMS0yMi4yMzctOC4yNDMsMTkuMTc2LDE5LjE3NiwwLDAsMS0zLjI3Ni0xNC41LDE4LjE0MywxOC4xNDMsMCwwLDEsLjYyMy0yLjQzNWwuNDkxLTEuNSwxLjMzNy45ODFhMzMuNjMzLDMzLjYzMywwLDAsMCwxMC4yLDUuMWwuOTY5LjI5NC0uMDg5Ljk2OEE1Ljg0NCw1Ljg0NCwwLDAsMCwyOCw4My4xMjJhNi4yNCw2LjI0LDAsMCwwLDYuNywyLjQ4NSw1Ljc0OCw1Ljc0OCwwLDAsMCwxLjYtLjdMNjIuMzgyLDY4LjI4MWE1LjQzLDUuNDMsMCwwLDAsMi40NTEtMy42MzEsNS43OTQsNS43OTQsMCwwLDAtLjk4OC00LjM3MSw2LjI0NCw2LjI0NCwwLDAsMC02LjctMi40ODcsNS43NTUsNS43NTUsMCwwLDAtMS42LjdsLTkuOTUzLDYuMzQ1YTE5LjA2LDE5LjA2LDAsMCwxLTUuMywyLjMyNiwyMC43MTksMjAuNzE5LDAsMCwxLTIyLjIzNy04LjI0MywxOS4xNzEsMTkuMTcxLDAsMCwxLTMuMjc3LTE0LjVBMTcuOTkyLDE3Ljk5MiwwLDAsMSwyMi45MTUsMzIuMzdMNDksMTUuNzQ3YTE5LjAzLDE5LjAzLDAsMCwxLDUuMy0yLjMyOSwyMC43MiwyMC43MiwwLDAsMSwyMi4yMzcsOC4yNDMsMTkuMTc2LDE5LjE3NiwwLDAsMSwzLjI3NywxNC41LDE4LjQ1MywxOC40NTMsMCwwLDEtLjYyNCwyLjQzNWwtLjQ5MSwxLjUtMS4zMzYtLjk3OWEzMy42MTYsMzMuNjE2LDAsMCwwLTEwLjItNS4xbC0uOTctLjI5NC4wOS0uOTY4YTUuODU5LDUuODU5LDAsMCwwLTEuMDUyLTMuODc4LDYuMjQxLDYuMjQxLDAsMCwwLTYuNy0yLjQ4NSw1Ljc0OCw1Ljc0OCwwLDAsMC0xLjYuN0wzMC44NDIsNDMuNzE5YTUuNDIxLDUuNDIxLDAsMCwwLTIuNDQ5LDMuNjMsNS43OSw1Ljc5LDAsMCwwLC45ODYsNC4zNzIsNi4yNDUsNi4yNDUsMCwwLDAsNi43LDIuNDg3LDUuNzczLDUuNzczLDAsMCwwLDEuNi0uN2w5Ljk1Mi02LjM0MmExOC45NzgsMTguOTc4LDAsMCwxLDUuMy0yLjMyOCwyMC43MTgsMjAuNzE4LDAsMCwxLDIyLjIzNiw4LjI0MywxOS4xNzEsMTkuMTcxLDAsMCwxLDMuMjc3LDE0LjUsMTgsMTgsMCwwLDEtOC4xMywxMi4wNTRMNDQuMjI5LDk2LjI1M2ExOS4wMTcsMTkuMDE3LDAsMCwxLTUuMywyLjMyOSIgY2xhc3M9ImIiLz4mI3hhOwkJPC9zeW1ib2w+JiN4YTsJPC9kZWZzPiYjeGE7CTx1c2UgeGxpbms6aHJlZj0iI2EiIHRyYW5zZm9ybT0idHJhbnNsYXRlKDM0LjIyOCAyOS4yNjcpIHNjYWxlKDEuNTg0KSIgaGVpZ2h0PSIxMTIiIHdpZHRoPSI5My4yMjQiLz4mI3hhOzwvc3ZnPg==;clipPath=inset(2.28% 41% 5.84% 2.33%);" vertex="1" parent="J32X09nQYzE7TfpPt7c1-10">
          <mxGeometry x="10" y="7" width="52.6" height="56" as="geometry" />
        </mxCell>
        <mxCell id="J32X09nQYzE7TfpPt7c1-13" value="" style="group" vertex="1" connectable="0" parent="1">
          <mxGeometry x="300" y="560" width="220" height="115" as="geometry" />
        </mxCell>
        <mxCell id="J32X09nQYzE7TfpPt7c1-14" value="&lt;b&gt;DSWFD Backend&lt;/b&gt;" style="rounded=1;whiteSpace=wrap;html=1;" vertex="1" parent="J32X09nQYzE7TfpPt7c1-13">
          <mxGeometry width="220" height="100" as="geometry" />
        </mxCell>
        <mxCell id="J32X09nQYzE7TfpPt7c1-15" value="" style="shape=image;verticalLabelPosition=bottom;labelBackgroundColor=default;verticalAlign=top;aspect=fixed;imageAspect=0;image=https://spring.io/img/spring.svg;" vertex="1" parent="J32X09nQYzE7TfpPt7c1-13">
          <mxGeometry x="29.995714285714286" y="9" width="31.428571428571427" height="31.428571428571427" as="geometry" />
        </mxCell>
        <mxCell id="J32X09nQYzE7TfpPt7c1-26" style="edgeStyle=orthogonalEdgeStyle;rounded=0;orthogonalLoop=1;jettySize=auto;html=1;exitX=0;exitY=0.25;exitDx=0;exitDy=0;entryX=1;entryY=0.357;entryDx=0;entryDy=0;entryPerimeter=0;" edge="1" parent="1" source="J32X09nQYzE7TfpPt7c1-18" target="J32X09nQYzE7TfpPt7c1-20">
          <mxGeometry relative="1" as="geometry" />
        </mxCell>
        <mxCell id="J32X09nQYzE7TfpPt7c1-27" value="SSR&amp;nbsp; Load" style="edgeLabel;html=1;align=center;verticalAlign=middle;resizable=0;points=[];" vertex="1" connectable="0" parent="J32X09nQYzE7TfpPt7c1-26">
          <mxGeometry x="-0.144" y="3" relative="1" as="geometry">
            <mxPoint x="-8" y="-1" as="offset" />
          </mxGeometry>
        </mxCell>
        <mxCell id="J32X09nQYzE7TfpPt7c1-30" style="edgeStyle=orthogonalEdgeStyle;rounded=0;orthogonalLoop=1;jettySize=auto;html=1;exitX=0;exitY=0.75;exitDx=0;exitDy=0;entryX=1;entryY=0.5;entryDx=0;entryDy=0;" edge="1" parent="1" source="J32X09nQYzE7TfpPt7c1-18" target="J32X09nQYzE7TfpPt7c1-11">
          <mxGeometry relative="1" as="geometry">
            <Array as="points">
              <mxPoint x="260" y="621" />
              <mxPoint x="260" y="798" />
            </Array>
          </mxGeometry>
        </mxCell>
        <mxCell id="J32X09nQYzE7TfpPt7c1-31" value="load" style="edgeLabel;html=1;align=center;verticalAlign=middle;resizable=0;points=[];" vertex="1" connectable="0" parent="J32X09nQYzE7TfpPt7c1-30">
          <mxGeometry x="-0.2705" relative="1" as="geometry">
            <mxPoint as="offset" />
          </mxGeometry>
        </mxCell>
        <mxCell id="J32X09nQYzE7TfpPt7c1-18" value="REST&lt;br&gt;API" style="rounded=0;whiteSpace=wrap;html=1;" vertex="1" parent="1">
          <mxGeometry x="280" y="587.5" width="40" height="45" as="geometry" />
        </mxCell>
        <mxCell id="J32X09nQYzE7TfpPt7c1-19" value="" style="group" vertex="1" connectable="0" parent="1">
          <mxGeometry x="-20" y="575" width="180" height="70" as="geometry" />
        </mxCell>
        <mxCell id="J32X09nQYzE7TfpPt7c1-20" value="SvelteKit Server" style="rounded=1;whiteSpace=wrap;html=1;align=right;spacingRight=19;" vertex="1" parent="J32X09nQYzE7TfpPt7c1-19">
          <mxGeometry width="180" height="70" as="geometry" />
        </mxCell>
        <mxCell id="J32X09nQYzE7TfpPt7c1-21" value="" style="shape=image;verticalLabelPosition=bottom;labelBackgroundColor=default;verticalAlign=top;aspect=fixed;imageAspect=0;image=data:image/svg+xml,PHN2ZyB4bWxuczp4bGluaz0iaHR0cDovL3d3dy53My5vcmcvMTk5OS94bGluayIgeG1sbnM9Imh0dHA6Ly93d3cudzMub3JnLzIwMDAvc3ZnIiB2aWV3Qm94PSIwIDAgMzU4LjQ2NCAyMzUuOTUyIj4mI3hhOwk8ZGVmcz4mI3hhOwkJPHN0eWxlPi5he2ZpbGw6I2ZmM2UwMDt9LmJ7ZmlsbDojZmZmO30uY3tmaWxsOiMxMjczZmY7fS5ke2ZpbGw6I2ZmZDgxNTt9PC9zdHlsZT4mI3hhOwkJPHN5bWJvbCB2aWV3Qm94PSIwIDAgOTMuMjI0IDExMiIgaWQ9ImEiPiYjeGE7CQkJPHBhdGggZD0iTTg3LjI2OSwxNC44MTlDNzYuODY5LS4wNjYsNTYuMzI4LTQuNDc4LDQxLjQ3Nyw0Ljk4NEwxNS40LDIxLjYwOEEyOS45MjEsMjkuOTIxLDAsMCwwLDEuODc2LDQxLjY1MSwzMS41MTQsMzEuNTE0LDAsMCwwLDQuOTg0LDYxLjg4MiwzMC4wMDYsMzAuMDA2LDAsMCwwLC41MDcsNzMuMDY1LDMxLjg5MiwzMS44OTIsMCwwLDAsNS45NTUsOTcuMTgxYzEwLjQsMTQuODg3LDMwLjk0MiwxOS4zLDQ1Ljc5MSw5LjgzNUw3Ny44MjksOTAuMzkyQTI5LjkxNSwyOS45MTUsMCwwLDAsOTEuMzQ3LDcwLjM0OWEzMS41MjIsMzEuNTIyLDAsMCwwLTMuMS0yMC4yMzIsMzAuMDE5LDMwLjAxOSwwLDAsMCw0LjQ3NC0xMS4xODIsMzEuODc4LDMxLjg3OCwwLDAsMC01LjQ0Ny0yNC4xMTYiIGNsYXNzPSJhIi8+JiN4YTsJCQk8cGF0aCBkPSJNMzguOTI5LDk4LjU4MmEyMC43MiwyMC43MiwwLDAsMS0yMi4yMzctOC4yNDMsMTkuMTc2LDE5LjE3NiwwLDAsMS0zLjI3Ni0xNC41LDE4LjE0MywxOC4xNDMsMCwwLDEsLjYyMy0yLjQzNWwuNDkxLTEuNSwxLjMzNy45ODFhMzMuNjMzLDMzLjYzMywwLDAsMCwxMC4yLDUuMWwuOTY5LjI5NC0uMDg5Ljk2OEE1Ljg0NCw1Ljg0NCwwLDAsMCwyOCw4My4xMjJhNi4yNCw2LjI0LDAsMCwwLDYuNywyLjQ4NSw1Ljc0OCw1Ljc0OCwwLDAsMCwxLjYtLjdMNjIuMzgyLDY4LjI4MWE1LjQzLDUuNDMsMCwwLDAsMi40NTEtMy42MzEsNS43OTQsNS43OTQsMCwwLDAtLjk4OC00LjM3MSw2LjI0NCw2LjI0NCwwLDAsMC02LjctMi40ODcsNS43NTUsNS43NTUsMCwwLDAtMS42LjdsLTkuOTUzLDYuMzQ1YTE5LjA2LDE5LjA2LDAsMCwxLTUuMywyLjMyNiwyMC43MTksMjAuNzE5LDAsMCwxLTIyLjIzNy04LjI0MywxOS4xNzEsMTkuMTcxLDAsMCwxLTMuMjc3LTE0LjVBMTcuOTkyLDE3Ljk5MiwwLDAsMSwyMi45MTUsMzIuMzdMNDksMTUuNzQ3YTE5LjAzLDE5LjAzLDAsMCwxLDUuMy0yLjMyOSwyMC43MiwyMC43MiwwLDAsMSwyMi4yMzcsOC4yNDMsMTkuMTc2LDE5LjE3NiwwLDAsMSwzLjI3NywxNC41LDE4LjQ1MywxOC40NTMsMCwwLDEtLjYyNCwyLjQzNWwtLjQ5MSwxLjUtMS4zMzYtLjk3OWEzMy42MTYsMzMuNjE2LDAsMCwwLTEwLjItNS4xbC0uOTctLjI5NC4wOS0uOTY4YTUuODU5LDUuODU5LDAsMCwwLTEuMDUyLTMuODc4LDYuMjQxLDYuMjQxLDAsMCwwLTYuNy0yLjQ4NSw1Ljc0OCw1Ljc0OCwwLDAsMC0xLjYuN0wzMC44NDIsNDMuNzE5YTUuNDIxLDUuNDIxLDAsMCwwLTIuNDQ5LDMuNjMsNS43OSw1Ljc5LDAsMCwwLC45ODYsNC4zNzIsNi4yNDUsNi4yNDUsMCwwLDAsNi43LDIuNDg3LDUuNzczLDUuNzczLDAsMCwwLDEuNi0uN2w5Ljk1Mi02LjM0MmExOC45NzgsMTguOTc4LDAsMCwxLDUuMy0yLjMyOCwyMC43MTgsMjAuNzE4LDAsMCwxLDIyLjIzNiw4LjI0MywxOS4xNzEsMTkuMTcxLDAsMCwxLDMuMjc3LDE0LjUsMTgsMTgsMCwwLDEtOC4xMywxMi4wNTRMNDQuMjI5LDk2LjI1M2ExOS4wMTcsMTkuMDE3LDAsMCwxLTUuMywyLjMyOSIgY2xhc3M9ImIiLz4mI3hhOwkJPC9zeW1ib2w+JiN4YTsJPC9kZWZzPiYjeGE7CTx1c2UgeGxpbms6aHJlZj0iI2EiIHRyYW5zZm9ybT0idHJhbnNsYXRlKDM0LjIyOCAyOS4yNjcpIHNjYWxlKDEuNTg0KSIgaGVpZ2h0PSIxMTIiIHdpZHRoPSI5My4yMjQiLz4mI3hhOzwvc3ZnPg==;clipPath=inset(2.28% 41% 5.84% 2.33%);" vertex="1" parent="J32X09nQYzE7TfpPt7c1-19">
          <mxGeometry x="10" y="7" width="52.6" height="56" as="geometry" />
        </mxCell>
        <mxCell id="J32X09nQYzE7TfpPt7c1-22" style="edgeStyle=orthogonalEdgeStyle;rounded=0;orthogonalLoop=1;jettySize=auto;html=1;exitX=0.5;exitY=1;exitDx=0;exitDy=0;entryX=0.5;entryY=0;entryDx=0;entryDy=0;" edge="1" parent="1" source="J32X09nQYzE7TfpPt7c1-20" target="J32X09nQYzE7TfpPt7c1-11">
          <mxGeometry relative="1" as="geometry" />
        </mxCell>
        <mxCell id="J32X09nQYzE7TfpPt7c1-23" value="Document" style="edgeLabel;html=1;align=center;verticalAlign=middle;resizable=0;points=[];" vertex="1" connectable="0" parent="J32X09nQYzE7TfpPt7c1-22">
          <mxGeometry x="0.1121" y="2" relative="1" as="geometry">
            <mxPoint as="offset" />
          </mxGeometry>
        </mxCell>
        <mxCell id="J32X09nQYzE7TfpPt7c1-28" style="edgeStyle=orthogonalEdgeStyle;rounded=0;orthogonalLoop=1;jettySize=auto;html=1;exitX=1;exitY=0.75;exitDx=0;exitDy=0;entryX=0.25;entryY=1;entryDx=0;entryDy=0;" edge="1" parent="1" source="J32X09nQYzE7TfpPt7c1-11" target="J32X09nQYzE7TfpPt7c1-18">
          <mxGeometry relative="1" as="geometry" />
        </mxCell>
        <mxCell id="J32X09nQYzE7TfpPt7c1-29" value="updates" style="edgeLabel;html=1;align=center;verticalAlign=middle;resizable=0;points=[];" vertex="1" connectable="0" parent="J32X09nQYzE7TfpPt7c1-28">
          <mxGeometry x="0.1691" y="4" relative="1" as="geometry">
            <mxPoint as="offset" />
          </mxGeometry>
        </mxCell>
      </root>
    </mxGraphModel>
  </diagram>
</mxfile>
